<svg width="27" height="32" xmlns="http://www.w3.org/2000/svg"><g fill="none" fill-rule="evenodd"><path d="M13.488 32L8.89 26.943c-1.176-1.293-1.2-3.435 0-4.703 1.16-1.226 3.005-1.21 4.148.047l.044.047a.54.54 0 0 0 .814 0c1.176-1.293 3.125-1.319 4.277 0 1.115 1.276 1.101 3.305-.042 4.562l-4.64 5.102a.002.002 0 0 1-.004 0" fill="#38CECE"/><path d="M22.737 21.333c-.475 0-.956-.106-1.411-.33a3.23 3.23 0 0 1-1.466-4.313 7.14 7.14 0 0 0-1.351-8.167 7.068 7.068 0 0 0-10.018 0 7.14 7.14 0 0 0-1.35 8.167 3.23 3.23 0 0 1-1.467 4.313 3.2 3.2 0 0 1-4.293-1.473A13.607 13.607 0 0 1 3.955 3.966c5.263-5.288 13.827-5.288 19.09 0a13.607 13.607 0 0 1 2.574 15.564 3.206 3.206 0 0 1-2.882 1.803" fill="#346AEB"/></g></svg>