<?xml version="1.0" encoding="UTF-8"?>
<svg width="87px" height="19px" viewBox="0 0 87 19" version="1.1" xmlns="http://www.w3.org/2000/svg" xmlns:xlink="http://www.w3.org/1999/xlink">
    <!-- Generator: Sketch 50 (54983) - http://www.bohemiancoding.com/sketch -->
    <title>logo-phone</title>
    <desc>Created with Sketch.</desc>
    <defs></defs>
    <g id="Visual-Design" stroke="none" stroke-width="1" fill="none" fill-rule="evenodd">
        <g id="OTCme-Landing-Page-·-Phone-320px-·-V2" transform="translate(-13.000000, -13.000000)">
            <g id="logo-phone" transform="translate(13.000000, 13.000000)">
                <path d="M69.5054994,15.2204301 L69.5054994,6.44501043 C69.5054994,3.25904983 67.8383243,1.40552298 65.0897833,1.40552298 C62.5741632,1.40552298 60.3807936,3.31698968 60.3807936,6.61846443 L60.3807936,15.2204301 L58.9476468,15.2204301 L58.9476468,6.35819204 C58.9476468,3.28792836 57.2516796,1.40552298 54.5902533,1.40552298 C51.9288269,1.40552298 49.8233101,3.72256862 49.8233101,6.70601391 L49.8233101,15.2204301 L48.3905325,15.2204301 L48.3905325,0.449789633 L49.8233101,0.449789633 L49.8233101,3.08559583 C50.7885847,1.55082954 52.1338786,0.102150538 54.7954895,0.102150538 C57.3978551,0.102150538 59.0059694,1.57970808 59.8250685,3.28792836 C60.7901586,1.63764793 62.3990111,0.102150538 65.2066129,0.102150538 C68.7449073,0.102150538 70.9384615,2.56431996 70.9384615,6.27155643 L70.9384615,15.2204301 L69.5054994,15.2204301 Z" id="Fill-1" fill="#38CECE"></path>
                <path d="M85.4526931,7.16803132 C85.248683,4.17282598 83.5253783,1.41066057 80.1089925,1.41066057 C77.1590472,1.41066057 74.8813952,3.88180131 74.6189649,7.16803132 L85.4526931,7.16803132 Z M80.4587768,14.2915299 C82.7659153,14.2915299 84.3430773,13.273861 85.5693493,11.965351 L86.5621247,12.837691 C85.0437515,14.4656676 83.2622108,15.6290323 80.4005408,15.6290323 C76.4876752,15.6290323 73.1005917,12.5176739 73.1005917,7.89449202 L73.1005917,7.83650728 C73.1005917,3.53334239 76.1371538,0.102150538 80.1672285,0.102150538 C84.3430773,0.102150538 87,3.47535766 87,7.86549965 L87,7.92366788 C87,8.12753195 87,8.21469255 86.970882,8.446815 L74.6189649,8.446815 C74.8813952,12.1394887 77.5388708,14.2915299 80.4587768,14.2915299 Z" id="Fill-3" fill="#38CECE"></path>
                <path d="M42.1889594,10.8612939 C40.5614785,12.4838474 37.9132804,12.4838474 36.2856154,10.8616608 C34.6583185,9.23874046 34.6583185,6.59826173 36.2856154,4.97552484 C37.0741507,4.18947153 38.1224648,3.75672946 39.2373794,3.75672946 C40.35211,3.75672946 41.4004241,4.18947153 42.1889594,4.97552484 C42.5445914,5.33030363 43.0176022,5.52585388 43.5209696,5.52585388 C44.024337,5.52585388 44.4973478,5.33030363 44.8527958,4.97552484 C45.2087958,4.62074605 45.4047337,4.14911407 45.4047337,3.64739743 C45.4047337,3.14568079 45.2087958,2.67423224 44.8527958,2.31945346 C43.3531805,0.823842571 41.3588448,0 39.2373794,0 C37.1157301,0 35.1213944,0.823842571 33.6217791,2.31945346 C32.1240035,3.81249614 31.2994083,5.8010184 31.2994083,7.9185011 C31.2994083,10.0359838 32.1240035,12.0246895 33.6217791,13.5179156 C35.1195546,15.0109583 37.1138903,15.8333333 39.2373794,15.8333333 C41.3608686,15.8333333 43.3550203,15.0109583 44.8527958,13.5179156 C45.5874252,12.7854277 45.5874252,11.5937819 44.8529798,10.8616608 C44.1190863,10.1293563 42.9235888,10.1291728 42.1889594,10.8612939" id="Fill-5" fill="#346AEB"></path>
                <path d="M29.4187003,0 L17.6333708,0 C16.5963088,0 15.7526627,0.840592361 15.7526627,1.87390054 C15.7526627,2.90720872 16.5963088,3.74780108 17.6333708,3.74780108 L21.6455112,3.74780108 L21.6455112,14.3678519 C21.6455112,15.4011601 22.4891572,16.2419355 23.5262192,16.2419355 C24.5632812,16.2419355 25.4069272,15.4011601 25.4069272,14.3678519 L25.4069272,3.74780108 L29.4187003,3.74780108 C30.4557622,3.74780108 31.2994083,2.90720872 31.2994083,1.87390054 C31.2994083,0.840592361 30.4557622,0 29.4187003,0" id="Fill-7" fill="#346AEB"></path>
                <path d="M7.92014882,18.9995883 L4.99420056,16.095238 C4.24561643,15.3519497 4.23086964,14.1208214 4.99420056,13.392721 C5.73283061,12.6882257 6.90704408,12.697192 7.63461402,13.4194369 L7.66226426,13.4467018 C7.80530816,13.5888817 8.03738583,13.5888817 8.18042973,13.4467018 C8.92901386,12.7037795 10.1692192,12.6889577 10.9028722,13.4467018 C11.6123774,14.1799258 11.6035293,15.3455452 10.8759593,16.0679731 L7.92254518,18.9995883 C7.92180784,19.0001372 7.92070183,19.0001372 7.92014882,18.9995883" id="Fill-9" fill="#38CECE"></path>
                <path d="M13.3925538,12.4259498 C13.1130462,12.4259498 12.8292923,12.3641878 12.5614154,12.2335162 C11.6246769,11.7771737 11.2380923,10.6533616 11.6979692,9.72344919 C12.4842462,8.13339796 12.1643077,6.22317389 10.9019077,4.9697898 C9.27526154,3.35499711 6.62824615,3.35499711 5.0016,4.9697898 C3.7392,6.22317389 3.41944615,8.13339796 4.20572308,9.72344919 C4.6656,10.6533616 4.27883077,11.7771737 3.34227692,12.2335162 C2.40553846,12.6898587 1.27347692,12.3064577 0.8136,11.3763621 C-0.684923077,8.34580799 -0.0756923077,4.70533107 2.32966154,2.31750517 C5.42972308,-0.75996605 10.4737846,-0.75996605 13.5738462,2.31750517 C15.9792,4.70533107 16.5886154,8.34580799 15.0899077,11.3763621 C14.7616615,12.0403496 14.0905846,12.4259498 13.3925538,12.4259498" id="Fill-11" fill="#346AEB"></path>
            </g>
        </g>
    </g>
</svg>