<?xml version="1.0" standalone="no"?>
<!DOCTYPE svg PUBLIC "-//W3C//DTD SVG 1.1//EN" "http://www.w3.org/Graphics/SVG/1.1/DTD/svg11.dtd" >
<svg xmlns="http://www.w3.org/2000/svg" xmlns:xlink="http://www.w3.org/1999/xlink" version="1.1">
<metadata>
Created by FontForge 20170731 at Mon Apr  4 21:41:15 2016
 By Aleksey,,,
(c)2016 Justin Greene | Greenhouse
</metadata>
<defs>
<font id="Caleb" horiz-adv-x="596" >
  <font-face 
    font-family="Caleb"
    font-weight="400"
    font-stretch="normal"
    units-per-em="1024"
    panose-1="0 0 0 0 0 0 0 0 0 0"
    ascent="819"
    descent="-205"
    x-height="711"
    cap-height="723"
    bbox="0 -433 1292 1153"
    underline-thickness="1"
    underline-position="-2"
    unicode-range="U+000D-007A"
  />
<missing-glyph horiz-adv-x="543" 
d="M51 102h307v507h-307v-127v-380zM0 660h410v-609h-410v609z" />
    <glyph glyph-name=".notdef" horiz-adv-x="543" 
d="M51 102h307v507h-307v-127v-380zM0 660h410v-609h-410v609z" />
    <glyph glyph-name=".null" horiz-adv-x="0" 
 />
    <glyph glyph-name=".null" horiz-adv-x="0" 
 />
    <glyph glyph-name="nonmarkingreturn" unicode="&#xd;" horiz-adv-x="0" 
 />
    <glyph glyph-name="space" unicode=" " horiz-adv-x="276" 
 />
    <glyph glyph-name="exclam" unicode="!" horiz-adv-x="279" 
d="M73 448q-2 41 -5 83t-5 85q-1 6 -1 12t3 11q6 8 6 17t-1 18q-1 10 4 18t15 10q24 5 48 8q25 4 49 6q3 1 5 1q8 0 15 -4q10 -4 18 -11q15 -11 20 -26q2 -6 2 -13q0 -9 -4 -19q-17 -43 -21 -89q-3 -45 -3 -91q0 -44 1 -87t1 -87q0 -21 -7 -31q-8 -10 -27 -18q-17 -6 -32 -6
q-14 0 -26 5q-27 10 -51 27q-4 3 -6 9t-3 12q-1 11 -1 23v23v57v56q2 0 4 1h2zM127 -4q-21 -1 -38 2q-18 4 -33 15q-16 12 -20 26q-2 6 -2 14q0 10 4 21q6 21 16 39q11 18 27 32q33 27 69 27h6q40 -2 72 -28q5 -3 8 -8t5 -11q7 -14 7 -30v-4q-2 -18 -5 -34q-2 -8 -9 -16
t-14 -13q-22 -16 -45 -25q-18 -8 -37 -8q-5 0 -11 1z" />
    <glyph glyph-name="quotedbl" unicode="&#x22;" horiz-adv-x="630" 
d="M130 423h-33h-32q-19 0 -30 9q-11 10 -12 30q0 20 -2 42v5q0 18 13 34q1 2 1 5v5q3 18 11 26q7 8 22 7t29 -3q15 -3 30 -4q20 -2 40 -3q19 -1 39 -2q8 0 12 5t3 11q-3 26 1 52t1 52q-3 15 4 22q6 8 20 9h10q8 0 15 -1q12 -1 25 -2q12 -2 23 -4q12 -3 25 2q9 3 19 1t20 -5
q26 -7 32 -17q6 -11 1 -36q-3 -15 -5 -29q-3 -15 -4 -30q-3 -18 2 -25q4 -6 22 -6q25 0 50 1q25 2 50 2q11 0 22 -1t22 -4q15 -4 21 -12q6 -9 6 -24q0 -7 -1 -15q-1 -7 -4 -14q-4 -13 -4 -25t2 -24q5 -23 -3 -33t-32 -14q-21 -4 -42 -2t-41 6q-59 5 -78 -9q-19 -13 -21 -79
q-1 -35 0 -89q1 -55 1 -133q1 -11 2 -23q1 -11 1 -22q0 -31 -21 -54t-51 -26q-8 -1 -16 -1h-12q-14 1 -27 4q-17 2 -25 11q-9 9 -10 25q-3 21 -4 92t0 141q1 48 4 86q2 38 6 52q1 2 1 5v4q0 14 -5 19q-5 6 -18 7h-37h-38v-1v0z" />
    <glyph glyph-name="numbersign" unicode="#" horiz-adv-x="614" 
d="M586 404q3 -13 -2 -19q-5 -7 -19 -9q-12 -2 -24 -1q-13 2 -25 4q-33 2 -45 -4q-12 -7 -13 -39q21 0 37 1h20q6 0 13 -1q7 0 13 -2q9 -2 13 -8q3 -5 3 -13q0 -5 -1 -9q0 -5 -2 -9q-2 -7 -2 -14t1 -14q3 -14 -2 -20t-18 -8t-25 -1q-12 2 -25 4h-13h-12v-21v-24v-13
q1 -7 1 -14q-1 -18 -13 -32q-12 -13 -30 -15q-8 -1 -16 0q-8 0 -16 1q-9 2 -14 7q-6 5 -6 15q-1 9 -2 36v61q-83 3 -104 -1q-21 -5 -19 -49v-14q1 -6 1 -13q-1 -18 -13 -32q-13 -13 -30 -15q-7 -1 -14 -1h-2l-16 2q-9 2 -15 7q-5 5 -6 15q-2 20 -5 41q-3 20 3 41v3v3
q0 7 -2 11q-3 3 -11 3h-22h-22v-1v0h-19h-19q-11 0 -18 5q-6 6 -6 18t-2 24v3q0 11 8 21q1 0 1 2v3q2 11 6 15q4 5 13 4q9 0 18 -1q9 -2 17 -3l24 -2t23 -1q4 0 7 3q2 3 1 7v18v30q-21 1 -35 1h-18v0v-1h-19h-19q-11 0 -18 6q-6 5 -6 17t-2 24q-1 13 8 24q1 1 1 2v3
q1 11 6 15q4 5 13 5q9 -1 17 -3q9 -2 18 -2q3 0 19 -1q15 -1 38 -2q0 29 1 52q0 22 -1 28q0 9 3 13q3 5 12 6h6h8q8 -1 18 -2q6 -1 13 -3q8 -1 15 2q5 1 11 0l12 -2q15 -5 19 -11q3 -6 0 -21q-1 -4 -1 -22q-1 -19 -2 -44q38 0 68 -2q30 -1 34 -1t7 4q2 3 2 7q-3 15 0 30
q3 16 1 31q-1 8 2 13q4 5 12 5q7 1 14 0q8 -1 15 -2q7 0 14 -2t14 1q5 2 11 1q7 -1 12 -3q15 -4 19 -11q3 -6 0 -20q-2 -9 -3 -18q-2 -9 -3 -17q-1 -11 1 -15q3 -4 14 -4q14 0 29 1q14 1 29 1h13q6 -1 13 -3q9 -2 12 -7q4 -6 4 -14q0 -5 -1 -9q-1 -5 -2 -9q-2 -7 -3 -14
q0 -7 2 -12zM364 331q0 11 1 19t3 12v3v3q0 8 -3 11t-11 3q-4 0 -34 1q-30 2 -69 2q0 -15 -1 -25v-13q-1 -3 -1 -6q0 -6 2 -8q3 -4 13 -4q6 0 35 1q29 0 65 1z" />
    <glyph glyph-name="dollar" unicode="$" horiz-adv-x="567" 
d="M350 483q0 -8 -1 -15l-2 -12q-3 -20 5 -32q7 -13 26 -20q30 -10 53 -30q23 -19 43 -41q36 -40 38 -89t-35 -92q-2 -3 -5 -6t-5 -6q-18 -28 -44 -43t-59 -21q-18 -3 -21 -7q-3 -5 -1 -23q1 -3 2 -7t1 -9q3 -20 -4 -33q-8 -13 -28 -16q-11 -2 -21 -2q-13 0 -25 2
q-23 5 -43 19q-12 7 -17 20q-4 12 -3 25q0 14 -6 22t-19 12q-20 6 -39 16q-19 9 -37 19q-26 15 -45 36t-29 49q-4 12 -4 22v4q1 12 10 24q4 5 7 11q4 5 9 9q19 22 34 22q14 0 36 -20q16 -15 33 -30q16 -15 34 -29q9 -8 17 -5q7 3 8 15v19v18q-1 7 -6 12q-4 5 -11 6
q-8 2 -16 3q-8 2 -15 4q-39 8 -73 48q-33 39 -30 94q0 14 1 28l2 30q1 38 18 62q18 23 54 37q15 5 29 11l30 10q20 6 23 10q4 3 4 24v16q0 7 1 16q2 32 18 47q16 13 43 14q3 0 6 -1h19h18q14 0 25 -6q10 -6 19 -17q11 -13 13 -26q3 -12 -5 -27q-20 -42 -11 -48q9 -5 46 -14
q15 -4 31 -6q16 -3 31 -7q19 -6 32 -16q14 -10 12 -34q0 -6 4 -12q3 -6 4 -13v-3v-5q-2 -4 -4 -6q-16 -16 -35 -25q-19 -10 -45 -3q-23 7 -46 11q-24 5 -49 10zM222 450q-1 17 -7 21q-3 2 -6 2q-5 0 -10 -3q-6 -4 -11 -8q-6 -4 -9 -8q-2 -2 -2 -6q0 -5 3 -7q6 -8 15 -10
q3 -1 5 -1q6 0 12 4q4 2 6 8zM331 216q2 -2 4 -6q2 -5 5 -7q2 -1 4 -1h3q5 1 8 2q4 2 7 4t6 5q8 7 8 15v1q-1 8 -10 15l-6 4q-4 2 -8 3q-3 0 -7 -1q-4 -2 -5 -4q-3 -7 -5 -14q-1 -7 -4 -16z" />
    <glyph glyph-name="ampersand" unicode="&#x26;" horiz-adv-x="597" 
d="M272 721q38 4 72 -8q33 -11 62 -37q18 -17 28 -38q9 -22 15 -45q1 -3 -3 -9t-8 -8q-9 -4 -18 -5l-18 -2q-3 -1 -6 0q-4 1 -7 3q-8 4 -14 10q-6 5 -17 6q-38 3 -77 5q-38 2 -76 -10q-5 -1 -10 -4q-5 -4 -8 -9q-6 -12 -11 -24q-6 -13 -7 -26q-3 -20 5 -35q8 -16 29 -23
l52 -18q25 -8 51 -17q6 -2 13 -3q7 -2 13 -5q3 -1 6 -6q3 -4 3 -7q0 -14 -4 -28q-3 -13 -16 -20q-15 -9 -30 -16q-16 -8 -34 -4t-31 -2q-12 -6 -23 -21q-13 -16 -28 -30q-14 -14 -29 -30q-10 -11 -12 -24q-1 -13 6 -26q3 -5 7 -9q4 -5 5 -10q7 -23 24 -36t37 -20
q22 -9 45 -16q23 -6 48 -5q14 1 24 5q11 5 21 14q16 16 18 38q3 23 -9 41q-4 6 -18 10q-13 4 -20 1q-2 -1 -5 -4q-2 -3 -3 -5q-4 -10 -6 -20q-3 -10 -6 -19q-8 -21 -20 -28t-33 -5q-19 2 -30 14q-12 13 -15 31q-2 24 4 45q7 22 26 37q27 24 56 45q28 21 65 32q29 7 52 26
t39 46q15 25 34 33q19 9 45 0q19 -5 31 -18q13 -13 20 -31q2 -7 2 -13q0 -5 -1 -9q-3 -11 -12 -21q-11 -12 -24 -24q-12 -12 -23 -24q-4 -4 -8 -9l-8 -8q-9 -7 -12 -16q-4 -9 -1 -20q10 -36 3 -71q-7 -34 -13 -69q-3 -23 -16 -42t-31 -33q-18 -15 -37 -27q-19 -13 -41 -22
q-2 -1 -4 -1t-4 -1q-26 -18 -53 -18h-3q-29 1 -58 11q-14 4 -28 9t-27 11q-6 3 -14 8t-14 11q-17 15 -33 31q-17 15 -33 31q-4 4 -7 9t-8 8q-19 13 -29 31q-9 18 -15 41q-4 15 -5 29v5q0 11 4 24q4 10 6 22q2 11 3 23q2 30 12 58q11 27 31 49l4 6q1 3 3 6q5 6 5 12
q1 6 -3 13q-14 20 -20 43q-7 23 -13 46q-9 34 0 62q9 27 31 51q29 31 64 55q34 25 72 42q6 3 13 4t13 1q5 1 9 1h5q8 -1 14 -1z" />
    <glyph glyph-name="plus" unicode="+" horiz-adv-x="664" 
d="M133 313h-35h-35q-20 0 -32 10t-13 32q0 22 -2 45v5q0 20 14 38q1 1 1 4v6q3 19 11 28q8 8 24 8q17 -1 32 -4q16 -3 32 -5q21 -1 43 -2q21 -2 43 -3q8 0 12 6q5 5 3 12q-3 28 2 56q4 28 0 56q-2 16 5 24t22 9h10h17q13 -1 26 -3q13 -1 26 -4t26 2q10 3 21 1t21 -5
q28 -8 35 -19q7 -12 1 -38q-3 -17 -6 -32l-4 -32q-2 -20 3 -27q4 -7 24 -7q27 0 53 2q27 1 54 1q12 0 24 -1t23 -4q16 -4 23 -13q7 -10 7 -26q0 -7 -1 -16q-2 -8 -4 -15q-5 -13 -5 -26q1 -14 3 -27q5 -24 -4 -35t-34 -16q-23 -4 -46 -1q-22 2 -44 6q-73 16 -87 2
q-13 -13 -8 -85q0 -12 2 -24q1 -12 1 -24q0 -34 -23 -59q-22 -25 -55 -28q-9 -1 -17 -1q-7 0 -13 1q-15 1 -30 3q-17 3 -27 12q-9 10 -10 27q-4 38 -10 75q-5 37 5 75q1 2 1 5v5q0 15 -5 21t-19 7h-41h-40v-2v0z" />
    <glyph glyph-name="comma" unicode="," horiz-adv-x="320" 
d="M289 -2v-12q-1 -9 0 -18q3 -29 -9 -52q-11 -23 -30 -44q-14 -17 -31 -23q-7 -3 -16 -3q-11 0 -23 4q-10 4 -21 6t-21 5q-19 7 -22 22q-2 15 11 29q5 5 11 8q5 4 11 7q12 8 20 19q7 10 12 23q6 17 0 26t-24 10h-21q-11 -1 -22 -1q-40 1 -64 24t-25 62v5q0 12 3 23
q3 13 18 23q13 8 22 20t19 22q32 33 66 33q11 0 23 -4q46 -13 71 -44q22 -28 34 -61q10 -30 10 -65v-4v-17q-1 -9 -2 -23z" />
    <glyph glyph-name="period" unicode="." horiz-adv-x="270" 
d="M144 194q4 0 8 -1h9q37 1 55 -18q19 -20 28 -51q3 -11 3 -22q0 -14 -4 -28q-8 -26 -40 -46q-21 -13 -43 -23q-22 -9 -46 -12q-7 -1 -13 -1q-19 0 -34 9q-20 10 -33 34q-13 22 -15 46q-1 2 -1 5q0 20 15 40q11 15 25 31q14 15 30 26q11 8 26 10t29 5q0 -1 1 -2v-2z" />
    <glyph glyph-name="slash" unicode="/" horiz-adv-x="634" 
d="M130 -24q-22 7 -44 13q-21 7 -42 16q-15 6 -20 23q-3 9 -3 17t2 15q8 23 18 45q9 21 22 42q49 80 103 156q54 75 108 151q6 8 11 16q6 7 11 15q22 41 49 80q28 39 58 75q14 16 26 33q13 18 33 29q10 6 19 9q4 1 9 1t12 -2l38 -10q19 -4 39 -4q21 0 28 -17q3 -6 3 -12
q0 -11 -7 -21q-26 -36 -53 -72q-26 -35 -53 -72q-32 -44 -63 -90q-32 -46 -64 -91l-14 -22q-8 -12 -15 -23q-32 -43 -60 -89q-27 -47 -54 -93q-15 -27 -33 -52q-17 -25 -34 -51q-4 -6 -13 -8t-17 -7z" />
    <glyph glyph-name="zero" unicode="0" horiz-adv-x="633" 
d="M53 361q3 24 5 48q3 24 7 48q3 13 8 26t13 23q11 17 10 33t-11 33q-12 19 -23 40q-10 20 -21 40q-4 4 -7 10q-2 5 -4 9q-8 16 -8 25q0 3 1 6q3 8 25 18q8 4 17 8l18 6q16 5 31 5t28 -5q25 -11 41 -44q8 -16 13 -18q6 -2 19 7q43 29 90 29q46 1 93 0q6 0 13 -3l12 -6
q20 -15 42 -29q21 -15 40 -31q30 -28 48 -64q18 -37 25 -77q10 -57 10 -114q1 -58 -14 -115q-7 -29 -17 -57t-23 -54q-6 -11 -6 -22q0 -10 7 -23q14 -20 26 -40q13 -20 33 -37q14 -10 15 -30v-1q0 -19 -12 -32q-9 -10 -19 -19q-11 -9 -22 -15q-20 -11 -39 -11q-6 0 -13 2
q-24 5 -44 29q-11 12 -20 25q-9 14 -19 26q-12 14 -19 15q-8 2 -22 -4q-2 -1 -3 -1q-1 -1 -2 -1q-57 -31 -110 -19q-53 11 -113 69q-10 10 -19 22q-10 12 -20 23q-15 17 -21 38t-11 41q-9 32 -14 64q-6 33 -12 67q-1 9 -1 19q1 9 1 19l-1 -1h-1zM430 271q4 18 7 30
q4 13 5 25q4 25 4 49q0 9 -1 18q-2 33 -11 66q-8 29 -21 53q-14 23 -35 43q-24 21 -53 22q-2 1 -4 1q-27 0 -51 -18q-3 -3 -5 -9q-1 -4 -1 -7v-3q2 -6 5 -12l6 -12q34 -61 72 -121q38 -61 83 -125zM321 170q-25 49 -55 93l-60 86q-3 4 -8 6l-10 4q-2 -5 -5 -9q-2 -5 -4 -9
q-2 -8 -2 -16q-1 -9 -2 -16v-7q0 -59 37 -95q38 -38 107 -37h2z" />
    <glyph glyph-name="one" unicode="1" horiz-adv-x="221" 
d="M186 352q0 -39 -1 -78t2 -78q3 -35 5 -70q2 -34 2 -69q0 -6 1 -11v-12q0 -11 -5 -18q-6 -8 -15 -13q-6 -4 -25 -4q-12 0 -29 1q-45 4 -53 13q-5 5 -9 12q-3 6 -4 13q-3 13 -6 27t-1 28q4 39 -1 78q-4 39 -6 77q0 7 -1 14v5q0 4 1 9q10 49 7 99t-3 101q1 26 -1 52
q-3 27 -3 54q0 25 1 50l2 50q3 19 12 25q7 6 23 6h4h22t22 -1q24 -2 38 -13q13 -12 13 -35q0 -34 3 -67q2 -33 -2 -66q-1 -12 1 -25q2 -12 2 -25v-64v-65h2h2z" />
    <glyph glyph-name="two" unicode="2" horiz-adv-x="709" 
d="M654 87q5 -5 9 -10q5 -5 9 -10q7 -6 11 -14q2 -4 2 -8q0 -5 -3 -10q-5 -10 -13 -18q-7 -8 -21 -8q-17 0 -34 -1h-33h-74h-75q-6 0 -13 -1q-6 -1 -12 2q-25 10 -51 8q-25 -2 -51 -3q-19 -2 -38 -3q-20 -1 -39 -1q-22 0 -40 -8q-18 -7 -30 -27q-12 -19 -27 -22q-4 -1 -9 -1
q-12 0 -26 6q-5 2 -12 2q-6 0 -13 2q-17 4 -26 15q-8 11 -7 30q0 5 1 10q2 5 1 10q-6 24 5 39q10 15 29 28q23 15 45 34q22 18 43 37q45 40 87 83t81 89q13 17 21 35q9 19 14 39q4 16 7 32q4 17 4 33q0 23 -9 44q-9 20 -33 32q-36 18 -72 14t-65 -31q-20 -19 -31 -41
q-11 -21 -11 -49q-1 -26 -9 -33q-9 -7 -35 -6q-9 1 -18 0q-8 0 -18 -1q-23 -2 -37 8t-15 32v13q0 15 1 30q2 22 12 42q19 39 42 73q24 35 58 62q20 16 42 29q22 12 49 15l10 2q5 2 10 3q31 9 61 9q12 0 23 -2q41 -4 81 -21q22 -11 43 -22q22 -12 44 -23q21 -13 38 -30
q16 -17 25 -42l8 -18l10 -18q11 -18 15 -37q4 -20 1 -41q-4 -25 -12 -47q-9 -23 -24 -43q-22 -30 -46 -58q-24 -29 -51 -54l-46 -44t-46 -45q-2 -1 -2 -4q-1 -3 0 -5q0 -3 2 -4q2 -2 4 -3q6 -1 13 -1q6 -1 12 0q40 6 81 4t82 0q7 1 15 2q7 2 15 3q21 3 41 -2q19 -5 33 -23
q7 -8 8 -16t-5 -17q-3 -5 -7 -11q-4 -7 -9 -14zM521 523q1 0 3 -2q0 1 1 3q-1 0 -4 -1z" />
    <glyph glyph-name="three" unicode="3" horiz-adv-x="649" 
d="M357 554q-38 4 -70 4q-32 -1 -64 -6q-35 -7 -72 -9q-36 -2 -73 -4q-13 -1 -21 6q-7 7 -10 20q0 1 -1 2v3q-4 61 9 83t82 31q23 4 47 6q23 3 47 7q57 10 113 12q56 3 113 -3q10 -1 22 0q12 0 23 3q9 3 18 3q2 0 4 -1q11 0 22 -2q34 -6 40 -12q7 -6 14 -38q2 -10 1 -18
q0 -8 -7 -15q-8 -9 -16 -19l-16 -20q-30 -34 -59 -69q-29 -34 -59 -68q-10 -11 -8 -19q2 -7 17 -15q13 -7 27 -14q13 -6 27 -12q28 -11 50 -30q21 -18 38 -43q17 -22 25 -48q7 -22 7 -46v-9q-1 -10 -1 -20q-1 -10 -1 -20q-2 -67 -50 -115q-47 -49 -98 -63q-63 -16 -128 -16
h-7q-67 1 -132 27q-27 11 -52 28q-25 18 -49 35q-10 6 -18 13q-8 8 -20 9q-18 3 -28 13q-11 10 -14 27q0 5 -2 10q-2 4 -4 9q-3 8 -3 16v5q2 9 9 16q17 16 34 31t35 28q12 8 24 4q13 -3 23 -11q19 -16 40 -31q20 -16 36 -35q18 -22 41 -31q22 -10 50 -9q24 1 48 1l48 2
q13 1 22 11q8 10 6 23q-5 28 -16 53q-10 26 -28 47q-8 8 -16 14q-9 7 -22 10q-17 5 -33 11q-16 7 -33 14q-21 10 -26 23t1 38q8 33 23 63q16 30 35 58q9 11 17 24t19 28z" />
    <glyph glyph-name="four" unicode="4" horiz-adv-x="759" 
d="M592 527v-65v-65q0 -20 6 -24q7 -4 21 2q24 11 49 8q24 -4 48 -9q10 -1 16 -9q4 -6 4 -15v-3q0 -3 -1 -7t-1 -9q-5 -41 -29 -57t-66 -7h-2q-1 1 -3 2q-23 5 -34 -2q-11 -6 -9 -34q1 -34 3 -68t8 -67q2 -11 2 -21q1 -11 1 -21q0 -25 -12 -38q-11 -13 -37 -18l-18 -2
q-10 -1 -18 -4q-13 -5 -23 -5q-14 0 -25 8q-20 14 -38 30q-4 4 -5 11q-2 7 -2 14v23l2 24q1 28 3 56q3 29 4 57q0 16 -4 24q-5 8 -29 10q-33 1 -65 4q-33 2 -66 -6q-3 -1 -7 -1q-5 -1 -8 0q-38 13 -75 2q-36 -10 -74 -9q-8 0 -16 -4q-9 -3 -19 2q-12 6 -22 15q-11 9 -14 21
q-7 21 -15 44q-4 11 -3 24q0 11 3 22q3 15 8 25q5 11 24 15q12 2 24 13q11 11 22 20q23 18 45 36t45 36q53 41 105 80q51 40 104 80q10 8 21 15q12 6 21 15q25 20 52 22q12 2 24 2q16 0 33 -3q23 -3 34 -15q11 -13 11 -37q-1 -35 -2 -69t-1 -68zM446 486h-7h-2h-3
q-42 -23 -80 -50q-39 -26 -75 -58q-3 -3 -3 -8q-1 -5 -3 -10q6 0 11 -2q5 -1 9 -1q23 3 47 6q23 3 47 5q10 1 21 0q10 -1 21 -1q8 0 14 6q5 5 5 14q0 25 -1 49q-1 25 -1 50z" />
    <glyph glyph-name="five" unicode="5" horiz-adv-x="651" 
d="M438 570q-27 -1 -54 1q-27 1 -54 8q-3 1 -7 2t-7 1q-32 3 -49 -16q-17 -18 -13 -50q1 -3 3 -6l6 -6q1 -1 4 -2h6q58 -2 110 -23q53 -21 106 -38q25 -8 45 -25q20 -16 39 -34q3 -4 7 -8q3 -5 3 -10q3 -26 15 -49q11 -23 16 -48q2 -12 5 -23l4 -22q1 -11 1 -22
q0 -34 -15 -61q-20 -36 -49 -68q-15 -16 -34 -27q-18 -11 -40 -18q-29 -9 -58 -19t-60 -13q-12 -2 -23 -3q-3 -1 -5 -1q-9 0 -17 4l-8 2t-8 1q-52 -1 -99 16q-46 17 -86 48q-8 7 -17 13q-8 6 -15 14q-9 11 -19 20q-10 10 -23 17q-9 5 -15 13q-7 8 -9 18q-4 12 -4 23
q0 10 3 18q7 17 31 24q13 4 23 10t19 17q2 2 6 5l6 4q10 7 22 6q11 -1 20 -10q13 -12 26 -25q13 -12 25 -26q14 -16 32 -26q17 -10 36 -21q25 -14 50 -12q25 1 50 10q17 7 28 20q12 13 16 33q3 16 5 31q1 15 -3 30q-9 31 -28 51q-18 19 -54 24q-22 3 -45 5q-23 3 -45 14
q-23 -4 -46 1q-22 5 -46 5h-16q-7 0 -14 1q-36 3 -42 9q-5 6 -8 40q-3 29 0 57q2 28 5 56q2 32 3 64q2 32 -3 63q-4 25 5 36q10 11 36 16q23 6 47 6h1q24 0 49 -4q37 -6 74 -8t75 -5q12 -1 23 -3t23 -4q18 -3 35 -3q18 0 37 5q14 3 30 7q15 3 30 5q10 0 20 -2q11 -1 21 -4
q11 -3 15 -11t2 -21q-1 -9 2 -14q3 -6 7 -12q7 -11 6 -21q-1 -9 -11 -16q-9 -6 -20 -11q-10 -6 -21 -7q-32 -5 -63 -9q-30 -3 -61 -7z" />
    <glyph glyph-name="six" unicode="6" 
d="M449 710q11 0 23 1h5q9 0 17 -2q10 -2 21 -6q10 -4 19 -10q14 -8 19 -20q3 -7 3 -14q0 -8 -3 -17q-8 -28 -15 -35q-8 -7 -38 -10l-32 -4q-16 -3 -32 -5q-6 -1 -12 -3t-12 -5q-33 -21 -66 -40q-34 -19 -60 -48q-12 -14 -26 -27q-14 -12 -27 -26q-4 -4 -9 -11t-4 -9
q5 -9 12 -5t13 6q14 4 29 10q14 5 28 8q26 7 52 3t50 -17q22 -14 44 -29t38 -35q36 -44 51 -94t-11 -109q-17 -39 -42 -69q-24 -31 -61 -53q-23 -13 -47 -23q-23 -9 -49 -14q-25 -5 -49 -5h-8q-27 1 -55 10q-14 4 -29 5q-14 1 -29 -5q-15 -7 -29 -2q-15 4 -26 15
q-9 9 -19 20q-10 10 -15 22q-16 39 -30 78q-15 38 -17 80v17v15q1 15 6 32q8 26 14 53q5 27 12 53q2 9 5 17q2 8 6 15q14 25 24 52q11 27 32 48q4 4 7 10t4 12q5 22 20 37q14 16 31 29q29 24 59 45q31 21 66 36t70 20q36 6 72 3zM377 203q-1 15 -1 25t-1 19q-3 26 -13 36
q-9 11 -36 16q-12 2 -25 4q-12 2 -25 2v0q-31 1 -60 -32q-25 -28 -25 -56q0 -4 1 -8q1 -6 3 -12q3 -6 6 -11q13 -26 34 -42q22 -16 48 -26q4 -2 10 -2q2 -1 4 -1q3 0 5 1q26 3 43 18q18 15 31 35q2 3 3 9v5v5q0 5 -1 11q-1 5 -1 4z" />
    <glyph glyph-name="seven" unicode="7" horiz-adv-x="657" 
d="M23 523v11q0 4 -1 6q-6 39 4 75q11 35 27 69q2 4 10 8q7 4 11 3q18 -6 33 -2q15 5 31 8q41 9 83 10h25q29 0 59 -2q18 -1 37 -1q19 -1 38 0q27 2 54 2q27 -1 54 -7q15 -3 32 -2q16 2 32 3q27 2 48 -8t32 -33q1 -2 1 -4q0 -3 -1 -6q-1 -7 -4 -8q-17 -9 -24 -24t-15 -32
q-11 -23 -24 -44q-13 -22 -28 -43q-32 -44 -59 -92t-49 -99q0 -2 -1 -5t-3 -5q-22 -39 -45 -77q-22 -37 -45 -76q-3 -6 -7 -11q-5 -5 -7 -11q-9 -30 -27 -53q-19 -22 -28 -51q-6 -17 -23 -26q-12 -6 -23 -6q-6 0 -11 1q-21 6 -42 7t-43 -2q-4 -1 -8 -1q-4 1 -8 1
q-19 2 -28 18t-2 34l10 22q6 11 14 20q28 37 50 79q23 42 57 75q3 3 6 7q2 3 5 6q22 41 44 83q21 42 44 83q15 28 31 56t31 56q2 4 4 7l2 8q2 6 -1 10t-9 5q-7 1 -14 1q-7 -1 -13 -2q-37 -6 -74 -13t-74 -13q-12 -1 -17 -7q-6 -6 -8 -16q-1 -11 -3 -22q-1 -11 -2 -21
q-1 -13 -8 -20q-7 -8 -17 -11q-21 -6 -43 -6q-21 0 -42 5q-17 5 -25 15q-7 10 -7 24v2l2 24q1 11 2 18z" />
    <glyph glyph-name="eight" unicode="8" horiz-adv-x="628" 
d="M535 398l14 -26t16 -24q16 -24 23 -50q6 -27 14 -52q4 -12 4 -24q0 -9 -3 -19q-5 -20 -13 -40q-9 -24 -24 -45q-15 -22 -35 -40q-56 -51 -123 -74q-67 -22 -141 -25h-12q-41 0 -79 14q-42 15 -78 45q-19 15 -34 38q-15 22 -24 47q-4 12 -8 26l-6 26q-5 20 -6 41v5
q0 18 4 37q8 38 25 72t39 66q9 13 10 18q0 5 -9 16q-25 27 -32 59q-7 31 1 66q8 38 26 72q17 34 52 56q2 2 6 4l6 4q38 34 82 40q18 2 36 2q27 0 55 -5q7 -1 15 -4q7 -2 14 -2q69 0 116 -37q47 -38 83 -87q26 -34 30 -76t-20 -83q-5 -10 -12 -20q-6 -10 -12 -21zM177 187
q1 -6 2 -13q1 -8 2 -15q3 -24 15 -38q13 -14 37 -21q21 -6 40 -6q25 0 44 11q33 19 42 72q2 14 5 29q2 14 8 28l2 10v1q0 5 -2 8q-10 17 -23 29q-12 12 -33 17q-8 2 -17 2q-4 0 -8 -1q-12 -1 -24 -4q-53 -12 -70 -39q-18 -27 -20 -70zM317 585h-6q-28 0 -47 -14
q-20 -15 -37 -36q-10 -13 -10 -28q0 -14 11 -26q9 -10 20 -19t23 -15q20 -10 39 -10q10 0 19 3q29 7 47 33q16 23 16 52v3q-1 30 -42 46q-8 4 -17 7q-9 2 -16 4z" />
    <glyph glyph-name="nine" unicode="9" horiz-adv-x="637" 
d="M606 422q1 -69 -21 -127t-62 -108q-13 -16 -25 -32q-11 -16 -24 -30q-35 -38 -76 -67t-89 -47l-12 -4q-6 -3 -11 -6q-22 -15 -47 -22q-24 -8 -51 -10q-26 -3 -53 -7q-27 -3 -53 -12q-6 -2 -13 -2q-12 0 -22 9q-16 13 -18 31l-2 26q-1 14 -2 27q0 4 1 8t4 6q16 15 31 31
q16 16 41 16l22 2l22 2q31 3 61 9q31 5 57 23q31 20 62 44q30 23 60 47q9 8 15 19l14 20v5l-2 4l-4 2q-3 1 -5 1q-5 -2 -9 -4t-9 -4q-9 -3 -18 -7t-18 -7q-4 -1 -10 -3q-5 -1 -9 -1q-18 2 -36 5q-19 2 -37 6q-55 14 -94 46q-39 33 -62 86q-2 4 -3 9t-3 10q-24 46 -18 90
t31 88q26 44 63 74q38 30 89 42q10 2 21 3h23q24 -1 49 -3q25 -3 49 -5q32 -5 59 -19q27 -15 53 -32q11 -7 22 -16q10 -9 20 -19q11 -11 20 -25q8 -14 11 -30q6 -36 14 -72q5 -23 5 -47q0 -11 -1 -23zM354 588q-36 -1 -70 -12t-61 -40q-5 -6 -8 -12q-2 -3 -2 -7t2 -8l4 -14
q1 -8 0 -15q-1 -17 5 -31q7 -15 13 -30q9 -19 24 -27q16 -9 35 -9h3q46 0 86 27q41 28 58 72q1 4 1 7q1 4 1 7v5q0 36 -25 61q-25 26 -64 26h-2z" />
    <glyph glyph-name="colon" unicode=":" horiz-adv-x="262" 
d="M142 -24q-36 2 -60 14q-25 13 -44 34q-14 17 -14 35v2q1 20 4 40q4 25 33 48q27 23 52 23h1q9 0 17 -3q9 -3 16 -7q33 -18 50 -48q18 -29 29 -63q3 -8 3 -15q0 -11 -5 -21q-9 -18 -29 -26q-13 -6 -28 -8zM130 346q-19 -3 -38 3q-19 5 -36 16q-15 9 -26 22q-10 12 -15 31
q-2 10 -2 19q0 11 3 20q6 17 21 32q13 13 28 21t33 12q10 2 20 2q12 0 24 -4q21 -6 37 -25q24 -27 24 -60v-1q0 -34 -11 -56q-9 -18 -24 -28q-9 -7 -21 -7q-8 0 -17 3z" />
    <glyph glyph-name="semicolon" unicode=";" horiz-adv-x="333" 
d="M297 14q-4 -13 -8 -27t-9 -28q-4 -11 -8 -23l-10 -22q-5 -9 -10 -19q-6 -9 -13 -17q-21 -23 -42 -26q-5 -1 -9 -1q-18 0 -41 12q-16 8 -19 17q-3 10 6 25q11 17 17 36t21 35q8 9 3 19q-6 10 -19 9q-20 -1 -37 4q-18 6 -34 15q-37 18 -45 50q-1 8 -1 16q0 25 18 50
q35 49 90 55q7 1 14 1q47 -1 83 -35l8 -8t7 -9q17 -29 23 -62t15 -67zM153 346h-7q-37 0 -60 15q-26 16 -43 41q-10 14 -10 28v7q3 18 15 35q14 24 56 38q25 7 43 7q14 0 26 -4q8 -3 16 -9q7 -5 13 -12q8 -9 15 -19q7 -9 14 -19q10 -16 11 -34q0 -9 -3 -20q-9 -30 -36 -40
q-15 -7 -29 -9q-15 -3 -21 -5z" />
    <glyph glyph-name="question" unicode="?" horiz-adv-x="511" 
d="M235 222q-10 -1 -15 -2h-10q-11 0 -19 6q-7 6 -11 17q-7 24 -9 49q-3 25 2 51q2 13 8 23q7 9 18 16q24 16 46 31q23 16 45 32l6 4q2 2 4 5q12 20 16 51q4 32 -12 55q-10 15 -24 23q-15 8 -32 9q-16 2 -33 -1q-16 -3 -30 -15l-22 -16q-11 -7 -20 -17q-6 -6 -9 -14
q-4 -9 -6 -17q-6 -17 -17 -25q-12 -8 -29 -6q-3 0 -6 1t-6 1q-11 1 -23 2q-11 0 -16 12q-7 16 -12 34q-1 4 -1 9q0 13 10 25q11 15 24 29t26 27q10 10 21 17q11 8 21 15q42 30 89 44q48 15 98 18h9q30 0 58 -12q32 -14 59 -38q23 -21 36 -47q12 -27 13 -59v-9q-1 -4 1 -8
q3 -11 3 -22q0 -7 -2 -14q-4 -18 -13 -33q-18 -27 -39 -53q-20 -26 -50 -44q-13 -7 -25 -15l-24 -16q-20 -13 -32 -29q-12 -17 -8 -44q1 -7 -2 -14q-3 -8 -6 -15q-6 -12 -15 -19q-7 -5 -17 -5q-3 0 -7 1q-5 1 -8 1q-4 1 -3 1zM151 78q-1 7 -1 14q0 41 33 66q25 19 57 19
q17 0 36 -6q3 -2 6 -3l6 -2q17 -9 32 -19q16 -10 19 -32q1 -10 1 -20q0 -13 -3 -26q-4 -22 -21 -40q-7 -8 -16 -15t-16 -15q-9 -9 -19 -12q-7 -3 -15 -3q-3 0 -6 1q-24 1 -43 11q-19 9 -35 27q-11 12 -13 27t-2 28z" />
    <glyph glyph-name="A" unicode="A" horiz-adv-x="843" 
d="M982 -218h-5t-5 1q-46 13 -90 30q-44 16 -80 46q-35 28 -69 56l-68 58q-11 9 -21 20t-20 23q-20 25 -39 51q-20 25 -39 51q-9 12 -17 25t-15 26q-6 10 -14 16q-8 5 -20 6q-15 1 -29 3q-15 2 -30 2l-62 2h-62t-41 -8q-11 -7 -23 -36q-11 -27 -24 -54l-24 -54
q-9 -22 -25 -32t-37 -11q-15 -1 -30 0q-15 0 -30 3q-24 4 -33 21q-4 7 -4 14q0 11 8 23q12 20 20 41q8 22 20 41q19 35 31 72t30 71q18 35 32 72q14 36 23 74q13 51 32 99l38 98l6 16l6 14q6 13 17 20q10 8 25 10q19 3 37 7t37 8q12 3 21 3t16 -3q12 -5 22 -28l16 -34
t16 -35q12 -31 27 -62q14 -32 27 -65q13 -34 33 -64q21 -31 39 -62q24 -41 46 -82q23 -42 48 -81q26 -39 54 -77t56 -75q5 -8 12 -15t14 -12l42 -34q21 -16 43 -33q17 -11 35 -19t39 -11q7 -1 13 -2q7 -1 14 -3q29 -7 34 -18q1 -2 1 -6q0 -11 -11 -32q-4 -7 -4 -15
q-1 -7 -2 -15q-2 -20 -20 -33q-16 -13 -35 -13q-1 0 -2 1zM340 329q12 2 29 4q16 2 33 6q9 1 13 8q2 4 2 8t-1 8q-12 30 -25 59q-12 30 -25 59q0 2 -3 4q-2 1 -5 1q-2 0 -5 -1l-3 -3q-12 -34 -25 -68q-13 -33 -24 -67v-1q0 -2 3 -7q4 -5 8 -7q5 -2 11 -2q7 0 17 -1z" />
    <glyph glyph-name="B" unicode="B" horiz-adv-x="625" 
d="M327 -15q-47 3 -92 6q-44 2 -88 5q-5 0 -10 2t-9 3q-17 7 -33 13l-32 14q-6 3 -13 7t-13 8q-15 12 -15 25q-1 12 12 21q13 8 15 20q2 11 2 24q-1 13 -2 27v28q0 61 -1 121t-1 120q0 17 -2 35q-2 17 -3 35q-1 21 -4 42q-2 21 -3 42q0 15 -1 28q-2 13 -9 26q-5 7 -5 15
q0 6 3 12q6 13 21 16q43 9 87 20q44 12 89 13h14q43 0 86 -8q49 -9 97 -24q4 -2 7 -4q4 -1 6 -4l32 -32q16 -15 32 -31q29 -31 32 -67q3 -35 -5 -74q-4 -20 -14 -37q-10 -18 -19 -35q-11 -20 -9 -32q2 -13 19 -25q33 -20 52 -51t35 -63q14 -28 13 -57v-7q-2 -33 -25 -64
q-13 -17 -27 -33t-30 -29q-21 -17 -44 -28q-22 -11 -51 -13q-25 -1 -49 -7q-16 -4 -31 -4q-7 0 -14 1zM174 210q3 -18 5 -37q3 -18 4 -37q1 -17 11 -23q9 -5 27 -6q5 0 10 1t9 4q19 8 39 9t40 -1q12 -1 25 0q13 2 25 4q3 1 9 6q5 4 4 6q-3 15 4 28q7 12 10 25q3 16 3 27
q0 10 -3 17q-6 14 -33 29l-16 8q-9 3 -14 8q-22 23 -47 25q-15 1 -30 1q-11 0 -22 -1q-30 -2 -45 -18q-15 -17 -15 -48v-13v-14zM181 518h2h1v-30v-30v-5q0 -3 1 -5q2 -21 11 -30q8 -9 30 -10h7q26 0 48 9q26 10 48 31q16 15 23 32q7 18 7 39v3q0 17 -8 30q-9 15 -26 23
q-31 15 -64 20q-15 2 -31 2q-17 0 -36 -3q-3 -1 -7 -5q-4 -5 -4 -8q-2 -14 -2 -29v-2v-32z" />
    <glyph glyph-name="C" unicode="C" horiz-adv-x="700" 
d="M189 385q-2 -52 18 -97q19 -44 39 -89q2 -4 6 -8t8 -7q22 -12 45 -24t51 -13l38 -2l40 -2q14 -1 27 4t23 18q16 20 34 39q17 19 34 39t37 20q19 1 37 -18q10 -12 21 -24q10 -11 20 -23q9 -9 10 -18q1 -2 1 -5q0 -7 -5 -14q-20 -37 -46 -68q-26 -32 -64 -53
q-13 -7 -26 -16q-13 -10 -25 -19t-25 -15q-12 -6 -27 -6q-9 0 -17 -3q-9 -3 -18 -3q-11 0 -20 2q-10 1 -21 4t-22 8t-21 6q-39 1 -71 15q-33 15 -62 36q-23 16 -45 35l-44 36q-15 12 -25 27t-17 32q-11 29 -21 56q-11 28 -20 56q-10 31 -11 63v7q0 28 9 57q10 32 19 65
q8 32 21 63q15 35 39 62q24 26 54 48q25 18 52 28q28 11 55 24q4 2 10 3q5 0 11 1h10q44 0 89 -6q50 -6 98 -19q26 -8 51 -23q25 -16 50 -30q9 -5 13 -15q5 -10 5 -20q2 -27 -6 -52l-16 -48q-9 -22 -34 -27q-26 -5 -46 10t-43 25q-22 10 -45 18q-28 9 -55 14t-57 5
q-37 0 -72 -25q-35 -26 -42 -67q-1 -7 -3 -13q-1 -6 -2 -13v-21q0 -10 -1 -20z" />
    <glyph glyph-name="D" unicode="D" horiz-adv-x="716" 
d="M295 -10q-23 2 -44 5l-44 4l-14 2t-13 -2q-24 -8 -47 -6q-23 1 -47 2q-26 1 -39 12t-18 36q-6 30 -6 60q0 31 6 61q8 41 8 82v83q0 37 -1 73q-2 35 -2 72q0 19 1 38q1 20 0 39q0 20 1 41q1 20 -7 41q-3 7 -1 16q1 8 3 16q2 5 7 11t11 8q20 6 40 10t40 10q26 7 52 7h1
q26 0 51 -6q7 -2 14 -3q6 -2 13 -2q47 4 90 -8q44 -12 85 -34q2 -1 5 -3q2 -1 5 -1q40 -6 69 -29l58 -46q6 -5 12 -11t13 -10q19 -12 33 -29q14 -16 25 -35q2 -5 7 -10q4 -5 4 -9q-5 -26 12 -44q13 -16 13 -36q1 -4 0 -9q-2 -20 -2 -41q0 -22 -2 -42q-2 -12 -5 -24t-8 -24
q-8 -15 -17 -31l-20 -30q-8 -12 -20 -22q-11 -11 -21 -22q-15 -16 -31 -31l-31 -31q-17 -18 -36 -30q-20 -13 -41 -23l-16 -6q-7 -4 -14 -9q-26 -22 -57 -27q-30 -5 -63 0q-2 1 -5 0q-3 0 -5 1q-2 -2 -2 -3v-1zM181 294h-2h-3v-47v-46q0 -9 1 -17q0 -8 1 -17q1 -16 8 -23
q7 -8 23 -9h23q47 0 92 8q57 10 109 40q27 15 45 38q18 24 23 57q3 15 3 29q0 20 -5 39q-9 33 -24 64q-24 49 -63 77t-90 39q-27 7 -54 11q-28 4 -55 9q-5 2 -10 2q-13 -1 -23 -8q-13 -10 -13 -28v-2l2 -34q1 -16 2 -33q3 -36 5 -74q2 -37 5 -75z" />
    <glyph glyph-name="E" unicode="E" horiz-adv-x="730" 
d="M384 -7h-128h-42h-85q-15 0 -30 3q-14 3 -29 7q-16 4 -25 15t-11 28q-6 33 -9 64q-1 12 -1 23q0 21 3 42q5 30 4 60t0 59q1 41 3 82q1 40 3 82q1 21 0 43v43l-2 58q-1 28 -1 56q0 9 3 19q2 9 7 17q3 6 9 10q5 5 12 6q18 3 37 6q11 1 21 1q9 0 17 -1q51 -5 100 -6
q50 -1 101 0q24 1 48 3q25 2 49 3q25 1 51 1t52 -1q24 -1 49 -2l48 -4q18 -2 26 -10t7 -25q0 -28 -3 -55t-6 -53q-1 -10 -11 -18t-21 -7q-50 6 -100 0q-51 -6 -99 -2q-48 3 -96 -1q-47 -4 -95 -1q-21 2 -28 -7t-10 -27q-1 -5 -1 -11v-11q1 -52 7 -61q6 -8 67 -10q40 -1 80 1
q40 1 81 -2q14 -2 24 -7q9 -6 14 -19q6 -19 12 -39q5 -19 8 -39q3 -28 -10 -42q-12 -14 -41 -20q-13 -3 -27 -4q-13 -1 -27 1l-84 2l-84 2q-17 0 -23 -4q-6 -3 -6 -12q-2 -18 3 -30q5 -11 17 -15q18 -6 36 -13q18 -6 38 -5q38 2 76 -1q38 -4 76 -6q43 -2 87 0l86 4
q32 2 58 -19q25 -21 26 -53v-15v-21q-1 -18 -3 -35q-1 -10 -7 -17q-7 -7 -18 -7q-11 -2 -21 -2q-11 -1 -22 -1h-120h-120z" />
    <glyph glyph-name="F" unicode="F" horiz-adv-x="757" 
d="M438 512h-84h-84q-30 0 -44 -12q-14 -13 -19 -40q-1 -8 -2 -17q0 -8 -1 -16q-1 -25 9 -35t35 -11q13 0 25 1q12 0 24 3q32 9 65 7q32 -2 65 -2q17 0 27 -10q11 -10 13 -26q3 -25 6 -51t5 -51q0 -9 -1 -19q-1 -9 -4 -18q-3 -12 -10 -19q-8 -8 -20 -9q-16 -2 -32 -2
q-16 -1 -33 1q-38 3 -76 4t-75 -4q-14 -2 -18 -6t-5 -18v-65q0 -33 1 -65q0 -26 -10 -35q-10 -10 -36 -11q-16 0 -32 -1q-16 0 -32 -2h-8q-21 0 -33 9q-15 11 -19 38q-2 18 -3 37q-1 20 -2 38v85v85v10q0 6 1 11q10 68 9 136t0 135q0 9 -1 19q0 10 -3 19q-3 19 -2 37
q1 19 7 38q6 21 20 29q15 7 34 -4q10 -5 20 -6q9 0 21 2q39 10 80 14q23 2 47 2q17 0 35 -1q43 -3 86 -3q43 1 86 1q18 0 35 -2q18 -2 36 -2l26 -2q14 0 27 -1q20 -1 41 -3q20 -1 40 -3q22 -2 34 -16q12 -13 15 -33q4 -15 5 -30q2 -15 4 -29v-12q0 -18 -7 -31
q-11 -17 -35 -24t-49 -13q-26 -5 -52 -4q-38 1 -76 0h-76v2v1z" />
    <glyph glyph-name="G" unicode="G" horiz-adv-x="725" 
d="M425 370q31 1 60 3l60 4q26 1 51 -3t49 -16q11 -5 17 -13t6 -21v-19t-1 -19q-1 -7 -2 -13q-2 -7 -2 -14q0 -66 2 -132t24 -131q12 -37 34 -68q22 -30 47 -59q13 -13 28 -20q16 -7 34 -11q23 -5 27 -11t6 -29l4 -30q2 -14 2 -29q0 -9 -3 -18t-8 -17q-2 -4 -8 -7t-10 -3
q-36 4 -71 12t-65 34q-10 9 -21 17q-11 9 -23 15q-23 12 -39 30q-15 18 -28 39q-18 30 -33 62t-26 66q-2 8 -5 16q-3 7 -7 15q-3 7 -8 10t-13 0q-19 -3 -37 -8t-38 -7q-39 -5 -78 0q-39 4 -76 17q-37 14 -72 30q-36 17 -66 43q-38 31 -61 72t-37 87q-12 40 -12 79v8
q2 44 13 88q15 54 44 96q29 43 63 84q19 23 41 43q22 19 48 33q23 12 47 22q23 10 47 20q5 3 11 3q6 -1 11 -1q31 -4 62 -9q31 -4 61 -9q7 -1 13 -3q7 -2 13 -3q25 -9 51 -18q25 -9 51 -17q15 -6 20 -14q5 -9 0 -23q-6 -14 -7 -27q0 -13 -3 -26q-3 -23 -17 -32
q-15 -9 -37 -2q-20 6 -39 13q-20 6 -39 14q-46 18 -85 9q-40 -9 -75 -45q-36 -38 -64 -81q-29 -43 -48 -91q-16 -38 -11 -77t33 -71q10 -12 17 -21q8 -8 14 -15q23 -27 37 -27q14 -1 70 -2q12 0 24 1t24 3q18 1 35 4q17 2 35 4q8 1 13 4q4 4 5 12v3t1 3q5 39 -5 52
q-9 13 -49 17q-11 1 -23 1q-12 1 -24 0q-21 -2 -43 2l-42 6q-9 2 -14 8q-6 6 -6 15v32q0 17 1 33q2 15 17 24q16 10 33 9q9 -1 19 -2q9 -2 19 -2q10 -1 19 -1q10 1 19 1v0z" />
    <glyph glyph-name="H" unicode="H" horiz-adv-x="767" 
d="M25 256q0 54 3 108q4 55 -3 108q6 37 1 73q-3 30 -3 61v10v32q1 15 2 31q0 15 8 23q8 7 25 10q11 2 23 3q13 2 24 5q5 1 10 1q4 0 7 -1q8 -1 15 -5q30 -14 34 -22q4 -7 0 -39q-2 -20 -2 -41q-1 -20 -1 -41q0 -37 -1 -75v-74q0 -11 4 -16q4 -4 16 -5q14 -2 29 -3
q14 -2 29 -2q38 -1 77 -4q38 -3 77 0q13 2 26 -1t27 -4l16 -2q9 -1 18 -1q22 1 30 8q7 8 8 30q1 27 1 55q1 28 1 56v10t-2 9q-12 23 -8 47t4 48q0 5 1 10l4 8q10 18 25 28q14 10 36 7q14 -1 26 1q13 1 27 6q16 6 28 -3q11 -8 10 -26q-1 -45 0 -91t-4 -91q-1 -8 -2 -17
q-2 -9 0 -17q8 -42 6 -84q-1 -43 3 -85q1 -6 1 -12t1 -11q5 -35 11 -69q5 -35 13 -69q5 -25 13 -49q7 -24 15 -47q6 -16 12 -31q7 -16 14 -31q7 -18 17 -32q11 -15 26 -25q19 -13 28 -33q8 -20 19 -39q1 -2 1 -5t-1 -6q-1 -7 -4 -11q-9 -12 -19 -22q-9 -11 -20 -21
q-10 -11 -23 -13h-6q-10 0 -19 5q-22 11 -43 24t-38 35q-22 27 -41 56q-20 28 -37 59q-7 12 -12 26l-12 26q-18 44 -31 89t-12 93v7t-1 7q-2 16 -6 20q-5 5 -19 9q-9 2 -17 4t-16 2q-61 3 -121 6q-60 2 -120 3q-42 1 -48 -5t-9 -51q-3 -39 -5 -77q-2 -39 -4 -76
q-1 -11 -7 -18q-5 -7 -15 -11q-13 -3 -26 -7q-13 -3 -26 -5q-19 -3 -34 6t-22 28l-6 18q-4 10 -4 19q-2 48 -2 97v99z" />
    <glyph glyph-name="I" unicode="I" horiz-adv-x="303" 
d="M234 399l2 -118q1 -60 2 -119q0 -16 -1 -32l-4 -32q-1 -14 0 -27t5 -27q1 -5 1 -10q0 -8 -5 -16q-8 -12 -23 -13q-31 -3 -61 -5q-31 -3 -62 -5h-2q-9 0 -18 7q-9 8 -12 20q-2 8 -3 17v17q2 53 4 107l4 106q0 17 -2 32q-2 16 -2 33q-1 48 -1 96v96v32q1 16 1 32
q0 13 -1 27q0 13 -1 27q0 8 -1 17t0 17q1 11 6 20q6 9 17 11q21 2 42 10q10 4 19 4q13 0 25 -6q7 -3 14 -3l16 -2q22 -3 31 -13t9 -32v-134t1 -134z" />
    <glyph glyph-name="J" unicode="J" 
d="M557 629v-11q1 -5 1 -10q-9 -51 -3 -101q4 -39 4 -78v-21q-2 -58 -10 -115q-9 -58 -24 -114q-3 -11 -6 -23t-7 -23q-6 -22 -17 -41q-11 -18 -31 -32q-41 -29 -87 -50q-45 -21 -93 -32q-22 -6 -46 -6h-3q-25 0 -49 11q-19 7 -40 11t-36 22q-26 8 -38 28q-11 21 -19 43
q-15 44 -21 91q-5 42 -5 84v11q0 12 1 26q0 13 1 26q1 11 6 19q5 9 15 15q14 8 29 12q16 5 31 4q15 -2 29 -4t28 -5q20 -5 29 -18q10 -14 8 -36q-3 -28 0 -56q2 -28 9 -55q4 -17 13 -31q8 -14 26 -22q17 -8 31 -5q15 3 24 19q17 31 32 63q15 31 13 70q-1 21 1 44q3 23 7 45
q12 74 18 149q5 75 6 151q0 22 8 30q8 9 29 10q18 1 37 1h15h21q9 0 18 -3q9 -2 18 -5q15 -6 21 -18q7 -12 7 -28q-1 -11 -2 -21q-1 -11 -2 -21h1h2z" />
    <glyph glyph-name="K" unicode="K" horiz-adv-x="745" 
d="M199 386q9 4 15 8q6 3 10 7l114 104q56 52 113 104q28 25 56 48q29 24 58 47q6 5 14 8q5 1 9 1t6 -1q18 -5 35 -4h34h11h10q26 -2 34 -16q9 -15 -2 -38q-13 -30 -34 -53q-22 -24 -44 -46q-25 -26 -52 -50q-26 -24 -52 -49q-10 -9 -19 -19q-8 -9 -17 -20q-7 -8 -6 -14
q1 -7 10 -12q46 -25 71 -66q26 -41 48 -85q19 -40 30 -82q10 -42 18 -85q8 -44 21 -87q14 -43 26 -86q9 -26 37 -64q27 -39 47 -56q5 -5 10 -9t9 -9q18 -21 39 -35q22 -14 49 -21q13 -3 25 -8t23 -11q4 -1 7 -7q3 -5 3 -8q0 -1 -1 -2q-3 -15 -8 -30q-4 -16 -12 -29
q-15 -27 -48 -39q-17 -5 -33 -5t-31 5q-40 15 -77 33q-38 19 -68 51q-20 21 -41 41q-21 21 -40 43q-16 17 -28 37q-11 21 -14 46q-3 23 -13 45q-11 22 -19 44q-14 35 -22 70q-8 36 -13 73q-6 46 -19 90q-12 45 -35 86q-4 6 -8 13t-9 13q-30 38 -52 42t-61 -22
q-22 -15 -42 -33q-19 -17 -40 -34q-13 -9 -18 -22t-4 -29q3 -29 -1 -58q-4 -28 2 -57q2 -6 2 -13t-3 -13q-2 -6 -6 -12q-3 -6 -9 -8q-30 -11 -61 -14q-31 -2 -62 11q-20 8 -27 20q-7 11 -2 33q4 16 3 31q0 16 -2 32q-3 43 -4 85q-1 43 -2 85q-1 46 2 92q2 47 -4 93
q-3 24 0 48q2 24 1 47q-2 22 -4 45q-3 22 -11 44q-3 7 -3 13q0 12 9 21q14 15 34 10q24 -4 47 -8q23 -3 47 -5q22 -1 32 -12q10 -10 10 -32q1 -18 -1 -34q-1 -17 -3 -35q-7 -45 -3 -90q3 -45 9 -92z" />
    <glyph glyph-name="L" unicode="L" horiz-adv-x="626" 
d="M163 -2q-12 -1 -24 -3q-13 -1 -25 -2q-29 -3 -43 10t-14 44q0 16 -1 33q-2 16 6 32q2 5 1 13q-1 7 -1 14l-4 84q-3 41 -4 83q-1 54 -5 108q-5 54 -13 108q-4 29 -6 58q-1 29 -9 57q-1 6 -1 12t2 13q4 12 10 23q2 5 7 9q4 4 9 6q24 8 48 12q16 2 32 2q9 0 18 -1
q19 -2 30 -12q10 -11 11 -31q3 -19 5 -38q2 -20 4 -39q1 -4 1 -9q1 -4 0 -8q-6 -37 -5 -74q0 -37 17 -73q0 -35 1 -70q0 -34 3 -68q1 -24 6 -47q4 -24 8 -47q3 -20 15 -32t32 -15q52 -10 98 -31q46 -20 90 -47q31 -19 62 -37q31 -19 57 -44q5 -4 11 -8q7 -4 12 -8
q18 -13 38 -21t42 -12q34 -8 68 -14q34 -5 66 -21q12 -6 26 -6t29 -3q11 -1 16 -10q3 -5 3 -11q0 -4 -1 -7q-4 -13 -9 -25q-5 -13 7 -26q1 -2 1 -5q-1 -3 -1 -6q-8 -27 -41 -51q-30 -21 -57 -21h-5q-14 2 -28 5q-14 2 -27 6l-42 12q-21 7 -43 13q-43 12 -82 32t-73 50
q-26 22 -54 42l-56 42q-18 14 -38 24q-19 10 -41 14q-35 5 -69 15q-34 9 -70 7z" />
    <glyph glyph-name="M" unicode="M" horiz-adv-x="903" 
d="M35 249q3 46 6 91q3 46 4 91q1 33 -1 66q-2 32 -2 66q0 15 -1 31v31q-1 9 -3 19q-1 10 -3 19q-1 8 -1 14q-1 10 3 17q7 12 25 16q21 4 39 0q18 -5 34 -22q45 -48 91 -97l94 -96q22 -22 46 -43q23 -21 46 -41q10 -9 18 -9t19 14q31 36 63 70q32 35 64 69q33 34 65 68
q33 34 65 68l6 6t6 5q20 18 31 19h2q11 0 32 -13q12 -7 16 -17t4 -22v-80t2 -80q2 -51 6 -102t12 -102q8 -49 14 -99l10 -100q6 -55 27 -104q22 -48 56 -92q34 -47 74 -90t85 -80l2 -2t2 -1q24 -24 27 -52v-7q0 -24 -16 -49q-2 -2 -3 -5q-2 -3 -5 -3q-19 -9 -38 -17t-40 -13
q-6 -1 -13 -1q-11 0 -20 4q-16 6 -28 20q-47 53 -99 102q-52 50 -86 113q-35 66 -67 134t-42 145q-4 31 -9 62q-6 31 -16 61q-5 14 -3 30t2 32q0 24 -1 48t-1 48q0 3 -2 5t-5 3q-2 1 -6 0q-3 -1 -4 -4q-13 -16 -27 -31q-14 -16 -29 -32q-20 -24 -41 -48q-20 -24 -41 -48
q-6 -6 -11 -14q-6 -7 -12 -9q-11 -1 -22 1q-11 3 -23 6q-6 2 -12 6q-6 5 -11 10q-9 7 -16 13q-7 7 -15 13q-37 33 -74 67q-37 33 -74 65q-4 4 -9 5q-6 1 -12 1q-2 0 -3 -6q-2 -5 -2 -9q-1 -12 -2 -23q0 -11 2 -23q7 -49 6 -99t-3 -99q-1 -8 0 -17q2 -9 4 -17q7 -22 2 -42
q-6 -21 -10 -41q-2 -13 -14 -20q-11 -7 -24 -7q-14 0 -29 1q-14 1 -28 3q-19 2 -29 10q-10 9 -12 29l-6 54l-4 54q-1 26 0 52v51h-1h-1z" />
    <glyph glyph-name="N" unicode="N" horiz-adv-x="806" 
d="M553 343q9 31 11 59q1 28 -1 56q-1 42 4 83q6 41 15 81q4 17 7 34q4 18 8 34q10 43 29 81q18 39 44 74q16 23 32 47q15 23 32 46q16 21 34 38q19 18 40 32q12 7 23 14t21 17q31 26 67 35t73 15q9 1 17 1q16 0 24 -5q12 -9 15 -36q2 -20 9 -39t11 -39q1 -3 1 -7
q0 -5 -2 -10q-2 -7 -10 -11l-42 -20q-20 -9 -41 -19q-11 -4 -22 -9q-12 -4 -22 -10q-39 -23 -70 -55q-30 -32 -53 -70q-9 -15 -17 -31l-16 -30q-12 -24 -19 -49t-8 -53q-7 -87 -10 -175q-4 -87 -4 -175q0 -45 2 -89t2 -88q0 -7 1 -14v-13q0 -9 -5 -16t-13 -7q-20 -3 -39 -5
q-20 -2 -37 -17q-2 -1 -5 -1q-4 0 -9 1q-10 3 -14 7q-31 28 -61 57q-31 29 -61 58q-40 38 -81 75q-40 38 -80 77q-28 26 -54 55q-27 29 -55 57q-2 3 -6 3q-4 1 -8 1q-1 0 -3 -3l-2 -6q-5 -25 -4 -51l2 -50q1 -18 2 -35q2 -17 2 -35q1 -34 2 -67q0 -34 1 -67q1 -32 -11 -46
q-11 -15 -41 -23q-6 -1 -13 -2t-14 -4q-11 -4 -21 0q-9 4 -19 7q-34 13 -45 37q-12 24 -13 57q-2 34 -2 70v4v75q1 95 2 188q0 94 -1 189q0 14 1 27q0 13 1 27q1 12 7 20q7 8 19 11q33 9 63 6q30 -4 55 -31q15 -15 32 -29q17 -13 33 -28q11 -10 22 -19q11 -10 23 -20
q34 -31 67 -62q34 -30 68 -62q28 -26 54 -53l54 -52q4 -5 10 -9q5 -3 12 -9z" />
    <glyph glyph-name="O" unicode="O" horiz-adv-x="759" 
d="M377 -11h-14q-6 0 -13 -2q-10 -2 -21 -2q-7 0 -14 1q-17 3 -33 9q-25 9 -50 20q-24 11 -49 20q-34 14 -61 36q-26 23 -53 44q-19 15 -26 37t-11 45q-3 17 -6 35l-6 34q-4 17 -4 35q0 10 2 21q3 28 13 54q16 42 33 83t37 80q13 28 36 49q23 22 49 40q10 9 21 17t21 17
q16 15 35 24q19 10 40 14q11 2 21 5q11 3 21 5q8 2 15 2h4q9 -1 17 -7q14 -11 30 -14q16 -2 32 0q17 3 32 -1q14 -4 29 -12q8 -5 17 -8q9 -2 18 -7q11 -6 24 -12q12 -6 21 -15q21 -21 41 -43t41 -43q19 -20 30 -45q10 -25 17 -51q6 -22 10 -44q4 -23 7 -46q4 -21 4 -42
q0 -18 -3 -35q-5 -39 -16 -76q-8 -30 -27 -53t-36 -46q-1 -1 -3 -1q-1 -1 -2 -3q-36 -51 -90 -75q-53 -24 -110 -40q-17 -4 -35 -4q-17 0 -35 -2v1v1zM554 338h-2t-3 1q0 12 1 24t-1 24q-4 38 -19 72t-42 63q-6 5 -12 11q-7 7 -14 7q-26 4 -53 6q-5 1 -9 1q-23 0 -44 -9
q-38 -14 -65 -42q-28 -27 -55 -55q-29 -61 -39 -124q-2 -13 -2 -25q0 -50 32 -102q15 -25 37 -38q23 -14 50 -15q9 -1 17 -1q43 0 83 13q48 14 92 42q13 9 22 20q10 11 12 26q4 25 7 50q4 25 7 51z" />
    <glyph glyph-name="P" unicode="P" horiz-adv-x="595" 
d="M31 314q0 48 1 97q0 49 -1 97q0 18 -2 36q-2 19 -3 37q-1 12 -2 25v5q0 10 2 19q0 7 4 14q4 6 8 13q1 2 3 3t4 3q15 14 29 27q15 13 29 27l42 2q13 1 27 1h15q33 -1 66 -3q33 -3 67 -5q7 -1 13 -1q6 -1 12 -4q27 -9 53 -19l54 -20q56 -23 89 -72q31 -46 31 -103v-7
q0 -17 -2 -34q-2 -18 -4 -35q-5 -35 -23 -62t-47 -47q-52 -36 -110 -55q-58 -20 -122 -20h-3h-2q-29 -1 -35 -7q-7 -6 -13 -33q-3 -17 -4 -34t2 -34q4 -17 5 -35q1 -17 1 -34q0 -8 -1 -17q-2 -8 -5 -17q-3 -11 -12 -18q-9 -8 -21 -8q-7 -1 -14 -1q-20 0 -40 3q-27 4 -52 11
q-14 3 -23 14q-10 10 -11 25q-1 12 -3 24q-1 13 -1 25q-1 54 -1 108v109zM216 523q1 -31 3 -63q1 -33 4 -66q0 -10 6 -16q5 -5 14 -8q13 -4 26 -4q7 0 14 1q19 4 39 3q24 -1 41 9t31 26q12 14 21 30q9 17 15 34q2 5 2 12t-2 12q-6 15 -16 27t-25 21q-8 5 -17 9t-17 9
q-17 10 -36 18q-18 7 -38 10q-14 2 -24 4t-17 3h-5q-11 0 -14 -9q-3 -10 -5 -48q1 -4 1 -7q0 -2 -1 -7z" />
    <glyph glyph-name="Q" unicode="Q" horiz-adv-x="792" 
d="M428 711q18 -1 36 -1q17 -1 34 -4q42 -7 79 -27q36 -20 70 -46q6 -4 10 -11l8 -14q11 -19 24 -39q13 -19 22 -40q13 -30 20 -61q7 -32 5 -64q-3 -32 -7 -64t-9 -64q-3 -21 -8 -42t-16 -40q-7 -11 -7 -23q1 -11 9 -22q22 -34 38 -70q16 -37 42 -69q13 -18 23 -39t17 -42
q8 -25 24 -38t40 -19q12 -3 24 -5t23 -5q25 -3 51 -7q25 -3 51 -7q16 -2 25 -12q10 -10 15 -26q6 -16 6 -32v-3q0 -17 -3 -33q-4 -18 -18 -28t-29 -13q-33 -8 -68 -12q-15 -2 -30 -2q-20 0 -41 3q-34 7 -67 18t-62 34q-6 5 -13 10q-6 5 -11 10q-17 18 -33 35q-17 18 -31 38
q-12 17 -21 37l-18 40q-6 12 -11 24t-10 25q-7 14 -15 28q-7 14 -9 31q-1 8 -4 15q-3 8 -7 15q-4 6 -10 8t-14 -1q-2 -2 -5 -2q-3 -1 -5 -2q-54 -38 -112 -49q-59 -11 -123 -1q-37 5 -71 16q-33 12 -66 28q-11 5 -21 15q-10 9 -21 17q0 1 -1 3l-2 2q-60 57 -80 131
q-19 75 -22 155v14q0 59 17 111q19 58 58 112q28 40 67 61q39 22 86 29q36 5 72 8q37 2 73 5q8 1 16 1h16zM587 372q-2 15 -4 32q-1 17 -7 33q-17 44 -47 77q-31 33 -76 50q-15 5 -31 10q-15 4 -30 9q-20 7 -39 7q-10 0 -20 -1q-28 -6 -56 -16q-12 -5 -24 -13
q-11 -8 -19 -18q-14 -17 -27 -37q-13 -19 -22 -39q-15 -34 -21 -70q-2 -12 -2 -24q0 -24 7 -48q3 -12 11 -16q2 -1 5 -1q6 0 12 5q19 15 41 21q21 5 44 8q11 1 21 3t21 4q11 1 24 3q12 2 23 1q22 -2 45 -7q23 -4 45 -7q13 -3 26 -7t26 -4q15 1 27 -2t24 -11q8 -5 14 -2
q7 3 8 13v22q0 12 1 25zM361 223q-22 -2 -42 -4t-39 -5q-9 -2 -18 -6l-16 -8q-1 0 -1 -5t1 -7q2 -3 6 -5t7 -3q39 -22 81 -25q43 -4 84 -10h6q7 0 15 2q10 4 20 7q7 3 8 10q1 1 1 2q0 6 -5 10q-23 22 -50 35q-25 12 -55 12h-3z" />
    <glyph glyph-name="R" unicode="R" horiz-adv-x="693" 
d="M543 281q20 -16 34 -33t23 -38q7 -17 19 -31q12 -13 17 -32q7 -23 12 -45q4 -23 6 -47q4 -35 10 -70t27 -66q0 -1 1 -2q1 -2 2 -3q4 -33 26 -47q23 -13 50 -22q32 -11 65 -11q32 1 65 1h41q21 0 42 -1q15 -1 23 -11q9 -9 10 -24v-26q-1 -14 1 -26v-7q0 -12 -5 -22
q-7 -12 -19 -21q-23 -15 -47 -22q-21 -7 -44 -7h-8q-16 1 -32 3t-31 0q-44 -4 -84 7t-80 28q-13 6 -25 13l-26 14q-33 17 -56 42q-23 26 -36 62q-3 9 -8 19q-4 10 -10 19q-23 38 -35 79q-11 40 -16 85q-3 30 -12 59l-18 58q-2 8 -7 16t-11 15q-9 11 -21 15q-11 4 -26 -1
q-36 -12 -72 -13q-37 -1 -74 3q-15 1 -17 -2q-3 -3 -9 -20q-7 -20 -7 -39q0 -20 -1 -39l-2 -32t-3 -31q-1 -14 -10 -22q-9 -9 -20 -11q-22 -5 -44 -6t-44 8q-11 5 -17 14q-7 9 -6 23q1 22 1 45v44q2 51 3 102q2 51 3 102v13q0 7 -2 13q-6 32 -6 64v17q2 41 6 81q1 5 2 11
q2 6 0 10q-10 31 -6 62q4 30 8 61q3 23 10 33t29 15q20 5 41 7q21 3 42 5q25 3 50 0q24 -3 49 5q2 1 5 1q2 0 5 -1q6 -2 10 -2q42 -4 83 -11q41 -8 80 -26q25 -11 52 -17q27 -7 52 -19q15 -7 28 -15q12 -9 21 -22q14 -18 27 -36q13 -17 25 -36q6 -8 9 -19t2 -20
q-3 -47 -17 -89q-13 -43 -51 -76l-24 -26q-13 -14 -28 -29zM287 580q-13 -1 -26 0q-14 0 -26 -4q-24 -7 -29 -11q-4 -5 -6 -27q-2 -39 -2 -79q-1 -39 -1 -78q0 -5 5 -12q4 -6 9 -8q16 -5 32 -9l34 -8q11 -2 26 -2q18 0 43 3q43 6 63 20q13 8 25 19q13 10 23 22q14 16 17 34
q1 7 1 14q0 13 -4 26q-6 23 -20 37q-15 15 -33 25q-31 17 -63 29q-24 10 -51 10q-8 0 -17 -1z" />
    <glyph glyph-name="S" unicode="S" horiz-adv-x="646" 
d="M329 718q20 0 40 1q20 2 39 -2q35 -8 71 -15t65 -33q17 -15 35 -28t35 -27q8 -8 8 -16v-1q0 -9 -10 -16t-19 -15q-8 -8 -16 -19q-14 -18 -36 -23t-43 7q-28 15 -57 24q-30 9 -58 20q-13 5 -26 6q-13 0 -26 -6q-15 -6 -29 -13l-28 -14q-10 -6 -13 -18q-4 -12 3 -20
q21 -23 42 -45q21 -21 53 -31q44 -13 83 -37q38 -24 71 -58q19 -20 31 -44q13 -24 15 -51q4 -36 1 -71t-25 -67q-3 -5 -5 -11t-5 -11q-9 -17 -21 -31q-13 -14 -29 -23q-38 -21 -77 -37q-40 -15 -81 -22q-6 -1 -13 -1h-4q-9 1 -17 2q-25 4 -50 9q-25 6 -50 15q-11 3 -21 7
q-11 4 -18 11q-21 19 -39 39q-19 19 -37 39q-14 16 -24 34t-12 40q-1 11 -3 22t-5 21q-3 11 -3 19t2 12q5 10 32 19l18 6l18 8q10 5 20 5t18 -5q18 -12 34 -27t19 -40q1 -8 3 -17l4 -16q9 -39 37 -58q27 -20 62 -28q35 -7 59 14q24 20 25 58v17q-1 9 0 17q4 32 -11 55
q-14 23 -37 43q-19 16 -40 27q-22 11 -45 20q-33 14 -63 33t-59 41q-17 14 -27 32t-14 40q-3 18 -4 36v37q0 42 21 74t53 58q11 8 24 14q12 5 26 6l66 6t66 5q1 0 1 -1v-1z" />
    <glyph glyph-name="T" unicode="T" horiz-adv-x="786" 
d="M334 148q0 12 2 23q1 11 0 22q-6 67 -9 134t-5 134q-1 22 -10 31q-8 10 -30 12q-27 3 -54 2q-26 0 -53 1q-24 2 -47 4t-47 6q-21 4 -33 16q-12 13 -17 36q-4 25 -7 49q-3 19 -3 39v10q1 25 20 41q15 12 33 12q5 0 11 -1l36 -8q18 -3 35 -6q4 -1 9 -2q4 -2 7 0
q46 12 91 -1t91 4q35 -1 69 3q35 3 70 8q17 2 36 -1q18 -4 36 -4q32 0 64 -1q32 0 65 -1q31 -1 40 -7q10 -6 16 -37q5 -23 8 -47q2 -18 2 -35q0 -6 -1 -12v-14q-1 -7 -3 -13q-6 -25 -18 -35q-12 -11 -39 -13q-26 -2 -53 -2h-52q-6 0 -11 1q-6 1 -12 1q-55 0 -65 -8t-14 -63
q-1 -17 0 -34q1 -16 3 -32q5 -51 10 -103q6 -51 8 -102q1 -30 -4 -61q-4 -31 -9 -61q-2 -19 -19 -31q-11 -7 -23 -7q-5 0 -11 2q-22 7 -44 8t-44 1q-9 0 -15 4q-6 3 -7 14q-3 19 -7 38t0 39q4 12 2 24q-1 13 -1 26q0 -2 1 -2q1 -1 2 -1z" />
    <glyph glyph-name="U" unicode="U" horiz-adv-x="810" 
d="M751 570l4 -50q3 -25 4 -49v-37q0 -18 -4 -35q-7 -40 -16 -81t-22 -81q-2 -6 -3 -13q-2 -7 -3 -14q-9 -63 -46 -109q-36 -46 -85 -82q-16 -12 -36 -18q-9 -3 -18 -3q-12 0 -24 4q-4 2 -8 2q-5 0 -9 -1q-68 -12 -129 8q-60 20 -117 55q-44 28 -78 67q-34 38 -53 87l-30 78
q-16 38 -22 80q-4 24 -8 49q-4 24 -8 49q-5 29 -5 59q0 16 1 32q5 46 2 92q-2 25 10 36q12 12 36 11q20 -1 39 -1q19 -1 39 -2q26 -2 38 -15q13 -14 9 -40q-5 -36 1 -69q6 -34 10 -68q4 -28 7 -55q3 -28 10 -55q8 -32 18 -64t24 -63q11 -23 30 -39q20 -16 45 -23
q20 -5 41 -9t41 -4q26 1 47 14t33 37q8 16 13 34q5 17 8 35q13 64 18 129q6 64 9 129q3 49 8 97q6 48 21 94q9 31 15 62q6 32 25 59q15 21 31 42q17 21 33 41l18 22q8 10 16 21q10 14 21 26q12 11 22 24q33 37 74 55q40 18 87 24q33 5 66 8q13 1 27 1q19 0 39 -2
q35 -4 48 -18q12 -14 13 -50q0 -11 -1 -22q0 -11 -2 -22q-2 -23 -11 -30q-9 -8 -32 -7h-9q-4 0 -8 1q-49 8 -88 -9q-38 -18 -71 -52q-15 -16 -29 -33l-30 -34q-42 -47 -64 -104q-21 -56 -29 -118q-2 -20 -1 -41v-42h1h-3z" />
    <glyph glyph-name="V" unicode="V" horiz-adv-x="988" 
d="M498 -1h-26q-13 1 -26 0q-6 -1 -11 -1q-16 0 -28 8q-14 10 -26 30q-27 46 -57 91q-30 46 -56 92q-29 51 -63 98q-33 48 -65 97q-24 38 -47 77l-46 78q-7 13 -12 27q-4 13 -8 28q-1 5 -1 11q0 10 5 20q7 15 23 21q33 11 68 13q36 3 71 1q12 -1 20 -10q9 -8 11 -20
q10 -60 41 -108q32 -49 65 -97q25 -37 49 -75l50 -76q7 -10 15 -20l18 -20q7 -7 15 -7q7 1 14 11q12 19 25 39q12 20 22 41q22 45 41 93q19 47 47 91l12 20q6 9 12 19q24 34 45 68q21 35 37 73l2 6q1 2 4 4q34 43 65 89t71 84q17 16 35 30q18 15 40 24q18 8 35 17
q17 8 32 20q23 17 49 23q27 7 55 9l38 4q18 3 37 5q10 1 21 1q10 0 20 -1q16 -1 27 -10q12 -9 17 -24l6 -20q2 -9 5 -19q1 -7 1 -14q0 -12 -5 -23q-8 -16 -27 -26q-16 -9 -32 -16t-33 -11q-33 -8 -63 -22q-31 -13 -60 -30q-20 -12 -37 -28q-18 -15 -34 -32q-28 -32 -55 -64
t-46 -70q-17 -32 -38 -62t-41 -60q-23 -35 -45 -71q-22 -37 -38 -75t-35 -74t-35 -74q-15 -36 -27 -73q-13 -37 -25 -74q-3 -8 -6 -17q-4 -8 -5 -16q-4 -13 -11 -17q-8 -4 -19 -4q-19 -2 -38 -2h-39z" />
    <glyph glyph-name="W" unicode="W" horiz-adv-x="862" 
d="M36 365l2 132q2 67 2 133q0 21 9 37t26 26q7 3 15 6q7 3 15 4l40 2t41 1q24 0 37 -19q14 -20 2 -41q-10 -19 -12 -38q-3 -19 -2 -40q1 -17 -2 -35q-3 -17 -3 -35q-1 -12 -3 -24q-1 -12 2 -24q9 -36 10 -72q1 -37 0 -73v-8t1 -8q1 -6 6 -9q6 -3 10 0q19 9 34 22t27 30
q16 22 33 43q16 21 33 42q6 7 14 13q8 5 17 9q18 8 37 2q19 -5 27 -24q14 -31 37 -53q22 -23 47 -44q18 -16 37 -32q18 -16 37 -31q2 -2 7 -3t7 1q2 1 4 5t2 8q1 60 1 119q0 60 1 120q1 39 4 78q4 38 7 78q2 14 6 29t12 27q22 37 43 74q22 38 57 66q16 14 30 30q14 17 31 31
q24 19 50 37t51 35q15 10 30 18q15 9 30 19q6 3 13 3h2q8 -1 13 -9q10 -14 20 -29q9 -14 18 -29q7 -10 7 -20v-6q-3 -13 -12 -23q-5 -7 -11 -11q-7 -5 -13 -10q-30 -22 -57 -45q-28 -24 -59 -44q-12 -8 -20 -24q-9 -15 -18 -29q-12 -19 -23 -39q-12 -20 -23 -40
q-13 -24 -17 -51q-4 -26 -8 -53q-10 -54 -11 -110q-1 -55 0 -111v-32q-1 -16 0 -32q2 -34 1 -68q0 -34 14 -66q4 -11 5 -23q0 -13 2 -25q2 -19 5 -37q2 -19 5 -38t-7 -32q-9 -12 -28 -12q-30 -1 -59 -1h-60q-13 0 -23 4q-11 5 -19 16t-18 20q-11 8 -20 18l-82 86t-82 87
q-19 21 -26 21t-26 -24q-15 -18 -28 -37q-14 -19 -28 -36q-27 -33 -55 -67l-56 -66q-3 -4 -9 -5q-5 -2 -10 -3q-28 -1 -57 0h-57q-9 0 -15 6q-6 5 -7 13q-3 26 -5 51q-3 26 -4 52q-1 63 0 124q0 61 -1 122z" />
    <glyph glyph-name="X" unicode="X" horiz-adv-x="733" 
d="M369 477q25 15 41 35q16 19 31 38q15 21 33 39q19 18 37 36q21 20 42 41q22 20 43 41q15 13 26 15h3q10 0 25 -11q9 -6 19 -12q9 -6 20 -10q6 -2 13 -9q6 -7 6 -12q-1 -22 1 -45q3 -23 -17 -41q-17 -16 -34 -31q-18 -16 -34 -32q-30 -31 -60 -63q-30 -31 -60 -63
q-14 -16 -15 -26q-1 -11 13 -28q10 -12 20 -23q11 -12 23 -21q22 -16 40 -36q19 -19 35 -41q13 -16 27 -30q15 -15 30 -28q18 -15 21 -35t11 -40q1 -1 1 -3v-4q-1 -4 -4 -7q-8 -11 -17 -23q-8 -12 -20 -18q-16 -8 -29 -16q-14 -9 -22 -26q-6 -13 -20 -14h-4q-11 0 -21 6
q-9 6 -17 12q-9 6 -15 14q-29 43 -66 78t-72 73q-10 10 -18 21q-9 12 -17 23q-10 12 -16 13t-17 -9q-29 -27 -59 -53l-60 -52q-17 -14 -34 -27q-17 -14 -33 -28q-10 -8 -19 -16q-10 -9 -18 -19q-8 -9 -17 -10q-8 -2 -19 0q-18 2 -29 11q-12 9 -21 22q-3 3 -4 9q-1 5 -1 10
q0 7 2 14q3 7 1 12q-6 13 -6 25q0 13 7 23q13 20 29 37q17 17 36 32t36 33q26 25 50 51l50 52q7 6 7 13q1 7 -5 14q-16 18 -29 39t-29 39q-33 38 -65 79q-32 40 -66 79q-17 20 -16 40q1 21 7 41q1 6 8 11q8 6 15 8q21 5 44 10l48 8q8 2 15 -1q6 -3 11 -9q49 -56 99 -112
q49 -56 99 -113z" />
    <glyph glyph-name="Y" unicode="Y" horiz-adv-x="866" 
d="M426 1q-13 0 -25 -1h-8q-8 0 -15 1q-20 1 -28 8q-8 8 -9 28q-1 5 -1 10v11q-3 54 -5 108q-2 53 -5 107q0 15 -6 26q-5 10 -15 21q-58 62 -114 126q-55 64 -105 132q-16 22 -34 42q-17 20 -34 41q-5 7 -5 15t5 15q9 11 21 17q12 5 26 5q27 2 54 0t53 -9q24 -6 42 -21
t29 -39q23 -45 53 -85t67 -73q34 -30 47 -28q14 3 32 40q27 56 65 103q37 47 79 91l42 42t41 43q4 4 8 7q4 4 9 7q26 17 52 33q26 17 52 33l42 24q20 13 41 25q38 22 79 35q41 12 83 22q4 1 8 1q11 0 22 -8q15 -11 16 -28q1 -10 1 -21v-22q-1 -28 -15 -47q-13 -19 -42 -26
q-79 -23 -144 -68t-121 -102q-14 -13 -24 -29q-11 -15 -24 -30q-17 -21 -36 -42q-19 -22 -35 -45q-28 -38 -54 -77q-27 -39 -53 -78q-6 -9 -11 -19q-4 -10 -5 -20q-3 -56 -8 -112q-6 -57 0 -114q5 -58 -9 -67q-14 -10 -63 -8h-9h-7z" />
    <glyph glyph-name="Z" unicode="Z" horiz-adv-x="733" 
d="M410 705h32h28q11 0 23 -1q11 0 22 3q24 6 48 6q9 0 17 -1q32 -3 64 -3q27 1 39 -13q11 -13 12 -41v-23q-1 -11 1 -22q3 -26 -9 -42q-12 -15 -32 -25q-40 -20 -74 -47q-34 -28 -65 -58q-12 -12 -20 -26q-9 -14 -18 -27q-15 -20 -30 -41l-30 -40q-4 -6 -9 -12t-9 -12
q-16 -26 -33 -51q-18 -24 -41 -44q-2 -3 -5 -6l-4 -6q-6 -8 -4 -14q3 -6 11 -7l28 -2t28 -1q29 3 58 -5q28 -7 55 -17q32 -10 62 -26t58 -37q32 -24 65 -46l68 -44q28 -18 60 -25t63 -14q19 -4 37 -7q19 -3 37 -8q14 -4 19 -12q4 -7 4 -18v-4l-2 -40q-1 -19 -2 -39
q-1 -12 -4 -22q-4 -11 -15 -18q-6 -3 -13 -7q-6 -2 -12 -2h-2q-40 3 -80 9l-80 10q-6 1 -12 3t-12 5q-47 26 -94 53q-46 28 -85 66q-28 28 -63 45t-72 30q-27 9 -56 14q-28 6 -58 4q-7 -1 -14 0q-8 1 -15 3q-38 9 -75 7t-75 -11q-5 -1 -12 -2q-6 -1 -13 -1q-33 2 -47 17
q-15 16 -18 49q0 10 -2 21q-2 10 -2 20q-1 7 -1 14q0 21 7 39q9 24 39 39q26 15 49 33q24 19 42 44q8 10 17 19q10 8 19 17q37 41 75 82l74 82q8 9 14 18q7 9 14 19q4 6 2 12q-2 7 -9 7q-36 -1 -72 5q-37 6 -73 -2q-10 -3 -20 -3t-20 3q-17 3 -33 4t-32 -4q-12 -5 -20 -1
t-15 13q-19 23 -28 47q-9 25 -4 54l4 12t5 11q4 8 12 13q7 5 17 5q8 0 15 1h15q47 -1 93 4q46 4 93 11q26 4 52 4q25 1 48 3z" />
    <glyph glyph-name="backslash" unicode="\" horiz-adv-x="705" 
d="M136 711h5q27 1 48 -12q23 -14 36 -38q25 -45 58 -84q32 -40 65 -79q39 -47 79 -95l80 -94q20 -24 41 -47q20 -23 41 -46q20 -22 41 -43q20 -22 40 -43q17 -18 17 -34q0 -3 -1 -6q-3 -17 -30 -32q-6 -3 -11 -7q-6 -4 -11 -8q-12 -13 -27 -19q-15 -5 -31 -2q-12 2 -21 -1
q-9 -4 -17 -12q-6 -7 -14 -7h-1q-8 1 -14 8q-13 14 -25 28q-12 15 -24 29q-39 49 -77 98t-78 95q-40 44 -72 94q-32 49 -65 99q-29 45 -61 87q-33 43 -73 79q-14 13 -15 28v2q0 14 12 26l10 10t12 7q20 8 40 13q21 6 43 6z" />
    <glyph glyph-name="a" unicode="a" horiz-adv-x="799" 
d="M31 51q3 8 6 19t8 22q14 35 28 69q15 35 30 69q33 78 67 156q33 78 65 156q15 34 28 69q12 36 25 71q1 2 1 3l2 2q6 13 10 28t21 18q14 3 27 3q9 0 18 -2q23 -3 40 -21q5 -5 9 -11q4 -5 7 -11l38 -74q19 -36 38 -73q5 -9 9 -18q3 -8 8 -16q19 -29 39 -58q19 -29 38 -59
q19 -31 37 -62t35 -63q11 -20 23 -39q12 -20 25 -39q15 -20 29 -42l26 -44q3 -5 3 -12v-5v-8q-5 -32 -25 -54q-19 -21 -44 -38q-6 -4 -12 -4h-3q-8 2 -15 8q-19 17 -33 38t-26 44q-5 10 -9 20q-3 9 -7 19q-16 34 -42 50q-26 17 -65 15q-29 -1 -59 1q-30 3 -60 4
q-30 3 -59 -2l-58 -8q-14 -2 -23 -9q-8 -7 -13 -20q-9 -20 -18 -41q-10 -21 -19 -42l-7 -14l-8 -14q-26 -35 -57 -36q-31 -2 -63 12q-9 4 -13 15q-2 7 -2 16v12zM457 329q-4 11 -8 20q-3 9 -7 18q-11 21 -21 43q-11 21 -22 43q-2 4 -5 9q-2 5 -4 9q-3 5 -9 5h-2q-5 0 -8 -4
q-19 -29 -34 -60q-16 -32 -22 -67v-4q0 -5 2 -9q3 -5 10 -7q5 -2 11 -4q5 -2 10 -2q26 2 53 5q27 2 56 5z" />
    <glyph glyph-name="b" unicode="b" horiz-adv-x="618" 
d="M324 0q-47 3 -92 6q-45 2 -89 5q-6 0 -10 2q-5 2 -10 3q-16 7 -32 13q-17 7 -33 14q-7 3 -14 7l-12 8q-15 13 -16 25q0 13 13 22q12 8 15 20q2 11 1 24q0 14 -1 27q-1 14 -1 29v122q-1 61 -2 121q0 18 -1 35q-2 18 -3 36l-4 42q-2 22 -3 43q0 15 -2 28q-1 13 -9 26
q-4 8 -4 16q0 6 2 11q6 14 22 16q44 10 88 21q44 12 90 13h13q44 0 87 -8q50 -9 99 -25q4 -1 7 -3q3 -1 5 -4q17 -16 33 -32l32 -32q29 -31 33 -67q3 -36 -5 -75q-5 -21 -15 -38t-19 -35q-11 -20 -9 -33t20 -24q33 -21 52 -52t35 -64q14 -28 14 -57v-8q-2 -33 -26 -64
q-13 -17 -27 -33t-31 -29q-21 -18 -44 -29q-22 -11 -51 -13q-26 -1 -50 -7q-16 -4 -31 -4q-7 0 -15 1zM170 227q3 -18 5 -37q3 -18 4 -37q2 -18 11 -24q10 -5 28 -6q5 0 10 1q5 2 9 4q19 8 39 9q20 2 41 -1q12 -1 25 1q13 1 25 3q3 1 9 6q5 5 4 7q-3 15 4 27q7 13 10 26
q4 16 4 27q0 10 -3 17q-7 15 -34 30q-8 4 -16 7q-9 3 -15 9q-21 23 -47 25q-16 1 -31 1q-11 0 -22 -1q-30 -2 -45 -19q-15 -16 -15 -47v-14v-14zM177 538h2h1v-31v-30v-5q0 -2 1 -4q2 -22 11 -31q9 -8 30 -10h8q26 0 48 9q26 11 48 32q16 15 23 32q7 18 8 39v3q0 18 -8 31
q-9 15 -26 23q-32 15 -65 20q-15 2 -30 2q-19 0 -37 -3q-4 -1 -8 -5q-4 -5 -4 -8q-2 -15 -2 -30v-2v-32z" />
    <glyph glyph-name="c" unicode="c" horiz-adv-x="708" 
d="M187 405q-2 -52 18 -97q19 -44 39 -89q3 -4 6 -9q4 -4 8 -6q23 -13 46 -24q23 -12 50 -14q20 0 39 -1q20 -2 40 -2q14 -1 27 4t23 17q16 20 34 40q17 19 34 39q18 20 37 20q20 1 38 -18q10 -12 21 -24q10 -11 20 -23q8 -9 10 -18q1 -2 1 -5q0 -7 -5 -15q-21 -36 -46 -68
q-26 -32 -65 -52q-13 -8 -26 -17t-25 -19q-12 -9 -24 -15q-13 -6 -28 -6q-9 0 -17 -3q-9 -3 -18 -3q-11 0 -21 2q-10 1 -20 4q-11 3 -22 8t-21 6q-39 1 -72 15q-32 15 -62 36q-23 17 -45 35q-22 19 -44 37q-15 12 -25 27t-17 32l-22 56t-20 56q-9 31 -11 63v7q0 29 9 58
q11 32 19 65q9 32 22 64q15 35 39 61t54 49q25 17 53 28q27 11 54 24q5 2 10 3q6 0 11 1h10q44 0 89 -6q51 -6 99 -20q27 -7 52 -23q25 -15 49 -29q10 -5 14 -15q4 -11 5 -21q1 -27 -6 -51q-8 -25 -17 -49q-8 -22 -34 -27q-25 -5 -46 10q-20 15 -43 25q-22 10 -45 18
q-28 9 -55 14q-27 6 -57 6q-38 0 -73 -26t-42 -67q-1 -7 -3 -13q-1 -7 -2 -13v-21t-1 -21z" />
    <glyph glyph-name="d" unicode="d" horiz-adv-x="735" 
d="M297 -3q-23 3 -45 5q-22 3 -45 5l-14 2q-8 1 -14 -2q-24 -8 -48 -6l-48 2q-27 1 -40 12q-14 11 -18 36q-7 31 -7 63q0 31 7 62q8 42 8 84v85q0 37 -1 74q-2 37 -2 74q0 19 1 39t0 40q0 21 1 42t-7 42q-3 7 -2 16t4 16q2 6 7 12t11 8q20 6 41 11q21 4 41 9q27 8 54 8h1
q26 0 52 -7q6 -1 13 -3q7 -1 14 -1q49 3 93 -9t86 -34q3 -2 5 -3q3 -1 6 -1q40 -6 70 -30t60 -47l12 -12t13 -10q20 -12 34 -29t26 -36q2 -5 7 -11q4 -5 4 -9q-5 -26 12 -45q14 -16 14 -37v-9q-3 -21 -3 -42q1 -22 -2 -43q-1 -12 -5 -25q-3 -12 -8 -23q-8 -17 -17 -33
q-10 -16 -21 -30q-8 -12 -20 -23l-22 -22q-15 -17 -31 -32l-32 -32q-17 -18 -37 -31t-42 -23q-8 -3 -16 -7q-8 -3 -14 -8q-28 -23 -59 -28q-30 -5 -64 0q-3 1 -6 0q-3 0 -5 1q-2 -3 -2 -4v-1zM180 309h-2h-2v-48v-48v-17t1 -17q1 -16 9 -24q7 -8 23 -9h23q48 0 95 8
q58 10 111 41q28 15 46 40q19 24 24 57q3 16 3 30q0 21 -5 41q-9 33 -25 65q-24 50 -64 79q-41 28 -92 40q-28 6 -56 11q-28 4 -56 10q-5 1 -10 1q-14 0 -24 -8q-13 -10 -13 -29v-2l2 -34l2 -34q3 -38 5 -76q3 -38 5 -77z" />
    <glyph glyph-name="e" unicode="e" horiz-adv-x="747" 
d="M397 -3h-131q-22 -1 -43 -1q-44 0 -88 1q-15 0 -30 3t-30 7q-16 4 -25 15q-10 12 -12 29q-6 33 -9 66q-1 12 -1 24q0 21 4 42q4 30 3 61t0 61q1 42 3 84q2 41 3 83q1 22 1 45q-1 22 -1 44q-1 30 -2 59t-1 58q0 9 3 18q3 10 8 19q3 5 9 10q5 5 12 5q19 4 38 6q11 2 21 2
q9 0 18 -1q52 -6 103 -7h102q25 1 50 4q25 2 50 3q26 1 52 1q27 0 54 -1q24 -1 49 -3q26 -1 50 -4q18 -1 27 -10q8 -8 7 -26q-1 -27 -4 -55q-2 -28 -5 -55q-2 -10 -12 -18q-10 -9 -21 -7q-52 6 -103 0q-52 -6 -102 -2q-49 3 -97 -1t-97 -1q-23 1 -29 -8q-7 -9 -10 -27
q-1 -6 -1 -11q-1 -6 -1 -11q1 -54 7 -63q7 -9 69 -10q41 -1 82 0q41 2 83 -1q14 -2 24 -8t15 -19l12 -40t8 -40q3 -29 -10 -43q-12 -15 -42 -21q-13 -3 -27 -4t-28 1q-43 2 -86 2q-44 1 -86 2q-17 0 -24 -3q-6 -4 -6 -13q-2 -18 3 -30t18 -16q18 -6 37 -13q18 -7 38 -5
q39 2 78 -2l78 -6q44 -2 89 0q44 2 89 5q32 1 58 -20q27 -21 27 -55q1 -7 1 -14q0 -11 -1 -22q-1 -18 -3 -35q-1 -12 -7 -18q-7 -7 -18 -8l-22 -2h-23h-122h-123z" />
    <glyph glyph-name="f" unicode="f" horiz-adv-x="765" 
d="M443 534h-86h-85q-30 0 -45 -13q-15 -12 -19 -41l-2 -16q-1 -9 -2 -16q0 -26 10 -37q10 -10 36 -11q12 0 25 1q12 0 24 4q33 8 66 7q33 -2 66 -2q18 0 28 -10q11 -10 13 -27l6 -52t5 -52q0 -9 -1 -19q-1 -9 -4 -19q-3 -12 -10 -19q-8 -7 -20 -9q-17 -2 -33 -2
q-17 -1 -33 1q-39 3 -77 4q-39 1 -77 -4q-14 -2 -18 -6q-5 -4 -6 -18q0 -33 1 -66v-67q0 -26 -10 -35q-10 -10 -36 -11q-16 -1 -33 -1q-16 0 -32 -2h-8q-21 0 -34 9q-15 12 -19 38q-2 19 -3 39l-2 38v86v86v11q0 6 1 11q10 69 9 138t-1 137v20t-3 19q-4 19 -2 38q1 19 7 38
q6 22 21 29q14 8 34 -3q10 -5 20 -6q9 0 21 2q40 9 82 14q23 2 47 2q18 0 36 -1q44 -4 88 -3h87q18 0 36 -1q18 -2 36 -3q13 -1 27 -1t27 -1q21 -1 41 -3q21 -2 41 -3q23 -2 35 -16t16 -35q3 -14 5 -29q1 -15 3 -30q1 -6 1 -12q0 -18 -8 -32q-11 -18 -35 -25q-25 -7 -51 -12
q-25 -5 -52 -4h-77h-77v1v2z" />
    <glyph glyph-name="g" unicode="g" horiz-adv-x="678" 
d="M634 204q3 -26 6 -51q2 -26 5 -52v-4v-6q-4 -34 -3 -69q2 -34 5 -69v-8v-4v-12q-2 -19 -10 -27t-27 -11q-6 -1 -13 -1q-14 0 -26 6q-18 8 -37 12q-8 2 -11 9q-4 7 -3 15q1 13 3 26q1 14 3 27q0 10 1 20t1 20q0 9 -5 13q-5 3 -13 0q-24 -12 -47 -23q-23 -12 -46 -21
q-12 -5 -26 -8q-13 -3 -27 -4q-47 -2 -92 6q-46 8 -85 38q-12 10 -26 16q-13 6 -24 15q-19 18 -36 37t-33 39q-13 16 -16 36l-8 38q-1 7 0 13q1 7 -1 12q-12 19 -12 39q0 21 -3 41q-3 17 -3 33q0 14 2 28q5 30 11 60q5 23 13 45q9 22 15 45q9 33 29 57t47 42l22 16
q10 7 18 19q8 10 52 36t58 27q50 3 100 12q21 3 41 3q30 0 60 -7q26 -6 52 -13t52 -15q13 -4 19 -19q5 -15 1 -32q-7 -22 -17 -43q-10 -22 -23 -41q-2 -4 -7 -6t-9 -3h-12q-7 1 -12 2q-32 9 -64 8q-31 0 -64 -2q-36 -3 -66 -17t-53 -43q-22 -27 -40 -56q-18 -28 -27 -63
q-6 -21 -15 -42q-9 -20 -11 -43q0 -18 -1 -36q0 -19 6 -37q8 -25 23 -45q14 -20 42 -28q15 -4 30 -10t31 -11q36 -10 69 8t43 54q2 6 0 10q-3 4 -8 4q-11 1 -23 1q-11 -1 -21 -2q-19 0 -37 2q-19 3 -35 11q-12 5 -20 13t-10 23q0 11 -4 21q-5 11 -7 21q-3 21 4 32
q8 11 30 17q5 2 10 2q4 1 9 4q14 9 28 9q15 0 28 -6q22 -10 43 -10q22 -1 44 5q6 1 13 3q7 1 12 -1q20 -10 40 -8l42 4q19 2 25 -2q7 -5 17 -21q19 -28 18 -60q-2 -32 -4 -63z" />
    <glyph glyph-name="h" unicode="h" horiz-adv-x="781" 
d="M728 196v-41v-40v-29v-30q1 -10 -2 -18q-2 -8 -7 -18q-14 -25 -33 -37q-14 -9 -34 -9q-8 0 -16 1q-11 2 -23 1h-25q-21 1 -32 12q-10 11 -10 32q0 9 1 17v16q0 36 1 73v73q0 10 -2 21t-4 21q-2 14 -11 21t-23 7q-7 1 -13 2h-13q-50 3 -100 4t-99 11q-12 2 -24 2t-24 1
q-14 0 -20 -6q-6 -5 -8 -20q-1 -5 -1 -11v-10v-57t-1 -56q0 -11 -1 -21l-2 -22q-2 -29 -19 -48q-16 -18 -42 -27q-25 -7 -50 -5q-25 3 -48 21q-7 6 -11 14t-4 18q2 51 5 102l6 102q3 54 7 108q3 53 6 107q2 54 2 108q0 53 2 107q0 21 12 32q11 10 27 10h5q21 -1 43 -4l42 -6
q23 -4 32 -13q8 -10 8 -33q-1 -29 -4 -56q-2 -28 -5 -57q0 -9 -2 -18q-1 -10 -1 -20q0 -41 6 -48q5 -7 45 -14q36 -6 71 -14q36 -8 71 -14q13 -2 26 -3q14 0 27 -1q18 -1 35 0q18 0 35 -1t25 5q7 6 7 25q2 48 5 97q2 48 5 96v14t1 13q1 18 12 28q10 9 27 8q20 -2 40 0
q19 2 38 8q7 2 13 2q7 0 14 -1q19 -1 29 -10q8 -8 8 -22v-5q-3 -40 -2 -80q2 -41 -10 -81q-2 -3 -2 -8q-1 -4 0 -7q7 -41 1 -80q-6 -40 -9 -81q-2 -40 -3 -80q-1 -41 -2 -81l1 2zM110 581q-1 -5 -2 -8q-1 -4 -1 -8q0 -2 1 -4t3 -4q1 3 2 7q1 3 1 6t-1 5q-2 3 -3 6zM102 527
q-1 -1 -2 -4q1 0 3 -1q-1 2 -1 5z" />
    <glyph glyph-name="i" unicode="i" horiz-adv-x="290" 
d="M239 405l2 -122l2 -122q0 -17 -2 -33q-1 -16 -3 -33q-2 -14 -1 -28q1 -13 6 -27q1 -5 1 -10q0 -9 -5 -17q-9 -12 -23 -14q-32 -3 -64 -5q-31 -2 -63 -4q-1 -1 -2 -1q-9 1 -18 8q-10 8 -13 20q-2 8 -3 18v17q1 55 4 110q2 54 4 109q0 17 -2 33q-2 17 -2 33q-1 50 -1 99v99
v33q1 17 1 33q0 14 -1 27q0 14 -1 28q0 9 -1 18t0 18q1 11 6 20q6 9 17 11q22 3 44 11q10 3 20 3q12 0 25 -5q7 -3 14 -4q8 -1 16 -1q23 -4 33 -14q9 -10 9 -33v-138t1 -137z" />
    <glyph glyph-name="j" unicode="j" 
d="M558 641q0 -5 1 -10t0 -11q-8 -50 -3 -100q4 -39 4 -78v-21q-2 -58 -10 -116q-8 -57 -24 -113q-3 -11 -6 -23q-2 -12 -6 -23q-7 -22 -18 -41t-30 -32q-42 -29 -87 -50q-46 -21 -94 -32q-22 -6 -46 -6h-2q-25 0 -50 11q-19 7 -40 11q-20 4 -35 22q-27 8 -38 28
q-12 20 -19 43q-16 44 -21 91q-6 42 -6 84v10q0 13 1 27q1 13 1 26q1 11 6 19q6 9 16 15q13 8 28 12q16 4 32 4l28 -4t28 -5q20 -5 30 -18q9 -14 7 -36q-2 -28 0 -56t9 -55q4 -17 13 -31t26 -22t32 -5q14 3 23 19q18 31 33 63q15 31 12 70q-1 21 2 44t6 45q12 74 18 149
t6 151q0 21 8 30t30 10q18 0 36 1h15h22q9 0 18 -3q9 -2 17 -5q15 -6 22 -18t6 -28l-2 -22q-1 -10 -2 -21h2h1z" />
    <glyph glyph-name="k" unicode="k" horiz-adv-x="760" 
d="M196 493q16 0 27 7q10 7 20 15q28 22 57 40q30 19 63 31q21 7 40 19q19 11 36 25q26 22 55 40q28 19 57 37q10 5 20 12t20 13q23 15 41 15q13 0 24 -8q26 -18 37 -46q5 -12 8 -25q3 -12 7 -25q3 -9 0 -15q-2 -6 -9 -12q-4 -3 -9 -6q-4 -3 -9 -4q-51 -11 -94 -38
q-42 -27 -85 -54q-35 -22 -34 -33q1 -10 26 -41q4 -5 9 -9q5 -5 10 -9q3 -4 7 -8q4 -3 5 -8q8 -39 23 -77q15 -37 24 -77q4 -16 9 -32t11 -32q13 -34 38 -59t52 -47q5 -5 14 -6t16 -3q11 -3 19 -9t11 -17q3 -9 6 -20q3 -10 5 -20q1 -11 1 -20q0 -21 -9 -33q-13 -17 -47 -28
q-13 -3 -28 -3t-28 3q-26 7 -50 15q-25 9 -49 19q-26 12 -48 31q-21 19 -40 40q-6 8 -11 18q-5 9 -8 19q-14 60 -33 118q-18 58 -23 120q-1 12 -7 21t-19 15q-10 3 -18 10q-9 6 -18 11q-17 11 -26 11t-24 -14l-34 -32l-34 -34q-3 -3 -5 -9q-3 -7 -3 -14q-2 -15 -3 -31v-31
q0 -19 2 -39t5 -38q4 -20 -2 -39q-5 -19 3 -39q3 -5 1 -12t-2 -14q-2 -13 -9 -20q-8 -7 -20 -10q-24 -8 -48 -11q-24 -4 -49 1q-18 3 -29 14t-9 27q4 35 1 68q-4 34 -6 67v5v6q11 68 9 135q-3 68 2 136q3 46 1 91q-3 46 -4 92v8v8q-1 45 9 56t53 16q12 2 23 5t23 6
q10 3 20 2t20 -7t15 -15q6 -8 4 -22q-3 -40 -5 -81q-2 -40 -4 -81q0 -8 1 -16q1 -7 2 -15z" />
    <glyph glyph-name="l" unicode="l" horiz-adv-x="675" 
d="M253 606q-3 -33 -7 -66l-6 -66l-2 -50l-2 -50q-1 -19 0 -39v-39v-23q0 -11 1 -22q2 -39 11 -47q8 -7 48 -10q54 -4 108 -9q54 -4 108 -9q21 -2 42 -3t42 -1q14 0 24 -6t18 -17t9 -19v-1q0 -7 -8 -14q-15 -14 -17 -29q-3 -16 -3 -33q0 -9 1 -19q0 -10 -1 -20
q-1 -18 -11 -28q-9 -10 -27 -12q-11 -2 -22 -2h-3q-10 0 -19 1q-30 1 -61 2t-61 3q-57 5 -114 11q-56 5 -113 10q-22 2 -44 2h-45q-7 0 -14 1q-7 0 -13 3q-16 5 -26 16q-9 12 -9 29q0 15 1 31q0 15 1 30q8 123 16 245t16 245q1 22 1 44v45q0 11 4 20q4 8 14 11q33 9 67 15
q10 2 20 2q24 0 48 -9q14 -5 20 -14q6 -10 6 -24q-1 -21 -1 -42q1 -21 1 -42l1 -1h1z" />
    <glyph glyph-name="m" unicode="m" horiz-adv-x="801" 
d="M198 405q-2 -7 -4 -10q-2 -4 -2 -8q-2 -38 -7 -75q-4 -38 0 -74q4 -40 2 -78t0 -77q1 -20 -1 -40q-1 -21 -2 -41q-1 -15 -7 -24q-6 -8 -20 -11q-20 -3 -40 -4q-20 -2 -40 -2q-5 0 -12 5q-6 4 -8 9q-16 31 -28 63q-9 21 -9 45q0 12 2 25q5 27 5 56q1 28 1 56q0 58 5 115
q4 58 7 116q3 56 2 112q-1 57 -1 114q0 5 1 11v10q4 23 16 32t37 4q16 -3 31 -3q16 -1 32 5q10 4 18 4q7 0 14 -3q14 -6 24 -20q4 -5 7 -9t6 -9q37 -60 83 -115q47 -54 95 -107q2 -3 6 -5t8 -6q41 40 82 79q40 39 80 79q16 16 33 31q17 16 34 31q11 11 24 15q14 5 30 3
q11 -2 21 -3q11 0 22 -2q18 -2 25 -9t8 -24l2 -54t1 -54q1 -32 1 -64q0 -33 1 -65v-8v-8q-10 -78 -8 -156t4 -157q0 -12 -1 -24l-2 -24q-3 -22 -16 -36q-14 -14 -37 -16q-18 -1 -37 -2t-37 -1q-16 0 -27 11q-11 10 -12 26q-2 39 -3 78q-1 38 -1 77q-1 30 -1 60q1 29 2 59
q0 15 2 29q1 15 3 30q0 2 -2 4l-4 4q-3 1 -6 1t-4 -1q-27 -28 -55 -55q-28 -28 -49 -60l-12 -18q-5 -10 -13 -17q-8 -8 -18 -15q-10 -6 -21 -12t-23 -5q-12 2 -22 11q-9 8 -17 17t-15 19q-30 41 -65 79q-34 38 -68 75l-10 4q-5 3 -10 7z" />
    <glyph glyph-name="n" unicode="n" horiz-adv-x="740" 
d="M36 171q-1 30 -3 67q-1 36 -4 74v19v18q3 51 5 100q2 50 5 100q1 12 2 26q0 14 3 26q4 15 6 29t-10 29q-6 10 0 20t13 18q8 7 39 15q31 7 41 4q7 -2 13 -6q6 -3 11 -7q45 -45 94 -84q50 -39 92 -86q4 -5 9 -9q6 -5 11 -8q28 -22 55 -45q27 -24 50 -51q4 -5 9 -9t10 -9
q4 -3 10 -1q5 2 6 8q2 15 4 29l2 28q1 19 1 37q0 19 2 38q1 27 3 55q1 27 0 55q-4 52 13 70t69 21q9 1 18 1q10 0 18 3q9 3 17 3t15 -4q13 -6 26 -16t17 -22q2 -6 2 -12q0 -8 -3 -17q-6 -21 -11 -41q-4 -20 -9 -40q-1 -6 -2 -11t-1 -10q0 -45 -2 -89l-6 -90q-1 -18 -1 -36
q0 -19 -5 -37q-3 -12 -3 -25t1 -27q2 -26 2 -52v-53q0 -14 3 -28q2 -13 14 -25q11 -10 13 -22q3 -13 -5 -26q-7 -13 -19 -21t-29 -3q-13 4 -24 1l-22 -8q-28 -13 -52 -5q-23 8 -45 25q-7 6 -13 13l-12 14q-28 30 -55 60t-48 65q-5 8 -12 15l-14 16q-18 22 -37 41
q-20 19 -46 30q-11 5 -20 13q-10 8 -19 14q-4 3 -10 0q-6 -2 -6 -8q-2 -19 -4 -39t1 -39q4 -48 3 -96q-2 -49 0 -97q0 -17 -4 -31q-5 -15 -15 -27q-21 -24 -38 -28q-4 -1 -8 -1q-15 0 -37 12q-12 7 -25 8q-12 0 -25 2q-10 1 -16 7t-9 16q0 2 -1 5v5q1 33 1 69q1 35 1 77z
" />
    <glyph glyph-name="o" unicode="o" horiz-adv-x="771" 
d="M387 2h-14q-7 -1 -13 -2q-11 -3 -22 -3q-7 0 -14 1q-18 4 -34 9q-26 10 -51 21q-25 12 -50 21q-35 13 -62 36q-27 24 -54 45q-19 15 -27 38q-7 23 -11 46q-3 17 -6 35t-7 35q-3 18 -3 36q0 11 1 21q4 28 14 56q16 42 34 84q17 42 37 82q14 28 37 50q24 22 50 41
q10 8 21 17q11 8 21 17q18 15 37 25t41 14q11 1 21 5q11 3 22 5q7 2 14 2h5q9 -1 17 -7q14 -12 31 -14q16 -3 32 -1q18 4 33 -1q15 -4 29 -12q8 -5 18 -8q9 -2 18 -7l24 -12q13 -7 22 -16q22 -21 42 -43q20 -23 41 -45q20 -20 31 -45q10 -25 17 -52q7 -23 11 -45
q4 -23 7 -47q4 -21 4 -43q0 -18 -3 -36q-5 -39 -16 -77q-9 -30 -28 -54q-19 -23 -37 -47q-1 0 -2 -1q-2 -1 -2 -3q-38 -52 -92 -77q-54 -24 -113 -40q-17 -5 -35 -5t-36 -1v1v1zM568 357h-3t-3 1q0 13 1 25t-1 24q-4 39 -20 74q-15 35 -42 64q-6 6 -13 12q-6 6 -13 7
q-27 4 -55 6h-9q-23 0 -45 -8q-38 -15 -66 -43l-56 -56q-29 -63 -40 -127q-2 -13 -2 -26q0 -51 32 -103q16 -26 39 -40q23 -13 50 -15h18q44 0 85 12q49 16 94 44q13 8 22 20q10 11 12 27q4 25 8 51q3 25 7 51z" />
    <glyph glyph-name="p" unicode="p" horiz-adv-x="622" 
d="M34 316v101q1 50 0 100q0 19 -2 39q-3 19 -4 38q-1 12 -1 25v6q0 10 1 20q1 7 5 14t8 13q1 2 3 4q2 1 5 3q15 15 30 28q15 14 29 28l44 2q14 1 29 1h15q34 -1 69 -3q34 -3 69 -5l14 -2q6 -1 12 -3l56 -20q27 -11 55 -21q59 -24 93 -75q33 -48 33 -107v-7q-1 -18 -3 -36
l-4 -36q-5 -37 -24 -65t-49 -49q-54 -36 -114 -57q-60 -20 -127 -20h-3h-2q-30 -1 -37 -7t-13 -35q-4 -18 -5 -35q-1 -18 3 -36q4 -17 5 -35q1 -19 1 -36q0 -9 -1 -18q-2 -9 -5 -18q-4 -11 -13 -19q-9 -7 -21 -8h-15q-21 0 -41 2q-28 4 -55 12q-14 3 -24 14q-10 10 -11 26
q-2 12 -3 25t-1 26q-1 57 -1 113v113zM226 533q1 -32 3 -66l4 -68q1 -11 6 -16q6 -6 15 -9q13 -4 27 -4q7 0 14 2q21 3 41 2q25 -1 43 9q18 11 32 27q13 15 22 32t16 35q2 5 2 12t-2 13q-6 16 -17 28q-11 13 -26 22q-8 5 -18 9q-9 4 -18 9q-18 11 -37 19t-39 11q-15 2 -25 4
q-11 2 -18 3h-5q-12 0 -15 -9q-3 -10 -5 -50q1 -4 1 -7t-1 -8z" />
    <glyph glyph-name="q" unicode="q" horiz-adv-x="762" 
d="M768 -134q-11 -3 -23 -3q-11 0 -22 3q-22 7 -42 18q-39 20 -77 42t-67 54q-10 10 -21 15q-12 5 -26 0q-31 -15 -63 -13t-63 3q-43 1 -83 13q-40 11 -79 30q-48 21 -78 58q-31 36 -58 76q-10 14 -17 30l-14 32q-7 18 -11 35q-1 5 -1 10q0 13 6 27q4 10 3 23q0 12 -1 24
q-7 55 9 106q17 51 41 100q25 51 60 92q36 41 84 72q23 14 48 20q22 6 44 6h7q110 -4 195 -54q85 -51 145 -139q37 -55 52 -119q14 -64 11 -130q-1 -41 -15 -80t-38 -73q-15 -21 -13 -42q2 -20 12 -40q11 -21 27 -37t42 -18q17 -2 35 -4q17 -2 35 -4q15 -2 27 -10
q12 -9 16 -23q5 -18 6 -36v-2q0 -17 -15 -33q-16 -19 -35 -26q-19 -6 -43 -3zM565 337q0 18 -10 46q-9 29 -21 50q-22 38 -53 68q-30 30 -74 47q-34 12 -67 12q-27 0 -54 -8q-60 -19 -94 -74q-11 -17 -17 -37q-5 -20 -11 -40q-1 -1 -1 -3q0 -5 3 -10q4 -7 12 -9q9 -1 18 -3
q8 -2 17 0q42 11 84 5t83 -12q33 -5 64 -17q32 -12 55 -39q2 -4 6 -6q4 -3 7 -5q9 -6 18 -6q7 0 13 3q15 6 19 24q3 3 3 7v7zM271 232q-10 -3 -21 -5t-22 -5t-13 -10q-1 -2 -1 -5q0 -5 3 -11q13 -22 32 -37t40 -29q20 -14 42 -18q3 -1 7 -1q18 0 35 15q5 4 11 5q6 2 11 4
q9 5 11 13q1 2 1 4q0 6 -5 11q-25 29 -58 47q-32 18 -73 22z" />
    <glyph glyph-name="r" unicode="r" horiz-adv-x="669" 
d="M757 -33q-3 -16 -5 -29q-3 -13 -7 -24q-4 -9 -7 -18q-4 -8 -8 -17q-3 -5 -5 -11q-3 -6 -5 -11q-7 -18 -14 -26q-7 -7 -19 -7q-5 0 -12 1q-6 2 -13 4q-17 5 -35 10q-17 4 -34 9h-4q-10 3 -22 9t-21 22l-1 1t-2 1q-36 28 -53 63q-17 36 -29 73q-4 13 -12 38q-7 22 -15 44
l-14 46q-1 2 -1 4l-2 4q-2 6 -4 14q-2 7 -2 14q0 15 -7 26t-17 23l-4 4q-1 3 -3 5q-6 7 -14 10q-7 2 -22 -3q-16 -5 -32 -8t-32 -5q-7 -2 -13 -3l-14 -2q-12 -3 -15 -5q-2 -3 -4 -14q-1 -6 -1 -11v-12v-7v-7q-1 -8 -1 -17v-16q0 -26 -2 -52q-1 -26 -9 -52q-4 -15 -13 -33
t-34 -26q-24 -8 -50 -11q-27 -3 -54 13q-11 7 -17 17q-5 10 -5 23v22v21v12v12v16v17v2h-3q0 5 1 13q1 10 1 19l2 18q1 24 3 49q2 24 3 49v10q0 6 -1 12q-1 5 -1 10v10v10v10q-1 15 0 30q0 15 4 29q2 7 0 14q-3 7 -7 16t-7 19q-4 10 -2 23v6q-1 4 -1 8t-1 8v8q-1 27 -4 57
q-3 29 -9 65q-2 12 -2 22q0 7 1 14q3 15 11 27t22 19q15 6 35 9q8 2 19 2q12 0 23 -1q18 -2 37 0q19 3 42 10q31 10 66 13q12 1 26 1q23 0 48 -3q5 -1 10 -1l10 -2q26 -3 53 -8q26 -5 52 -14q21 -8 35 -18q15 -11 25 -25q2 -2 3 -4t3 -5q3 -5 7 -10q4 -6 8 -11
q41 -42 40 -109q-1 -68 -31 -114q-10 -18 -23 -35q-12 -18 -24 -33q-2 -2 -2 -4t1 -4l12 -14q5 -6 10 -13q12 -18 24 -38q11 -21 15 -45q1 -6 3 -12q3 -7 5 -13q1 -5 3 -10t3 -10t3 -10t3 -10l8 -28t4 -29q0 -13 5 -24q6 -11 13 -22q2 -5 5 -9t5 -9q0 -1 3 -3q2 -2 12 -5
q6 -3 13 -4q6 -2 13 -4q6 -1 12 -3l12 -4q9 -3 18 -8q8 -4 15 -8q6 -5 11 -13t6 -14zM432 528q-4 12 -10 19t-15 10l-18 8q-9 3 -18 7q-8 3 -15 6q-8 3 -15 6l-8 2q-3 1 -5 1h-1v0q-21 -1 -40 -7t-39 -17q-6 -4 -9 -8q-3 -5 -3 -12q0 -22 -1 -44q-1 -21 -2 -43
q-1 -16 -2 -33q0 -16 -1 -33v-6q0 -3 1 -5q1 -9 5 -13q3 -3 11 -5q10 -1 21 -1q12 0 25 2q23 4 48 17q15 8 32 21t35 31q21 21 27 45q2 10 2 20q0 15 -5 32z" />
    <glyph glyph-name="s" unicode="s" horiz-adv-x="677" 
d="M347 736q20 0 41 2t40 -3q36 -8 73 -15t68 -34q17 -15 36 -29q18 -13 35 -28q9 -7 9 -16v-1q-1 -9 -11 -17q-10 -7 -19 -15q-8 -8 -16 -19q-15 -19 -38 -24t-44 7q-29 15 -59 25q-30 9 -59 21q-14 5 -27 5q-14 0 -27 -5l-30 -14q-14 -7 -29 -14q-10 -6 -13 -19
q-4 -12 4 -21q21 -24 42 -46q22 -22 55 -32q45 -14 85 -38q40 -25 73 -59q20 -21 33 -46q12 -25 15 -53q4 -37 1 -73t-26 -68q-3 -6 -5 -12q-3 -6 -5 -12q-9 -17 -22 -31t-30 -24q-39 -22 -79 -38q-41 -15 -83 -22q-7 -1 -14 -1h-4q-9 0 -17 2q-26 4 -52 9t-51 15
q-11 3 -22 8q-11 4 -19 11q-21 20 -40 39q-19 20 -38 41q-14 16 -24 35t-13 41q-1 12 -3 23t-5 22q-3 12 -3 20q0 7 2 12q5 9 33 19l18 6q10 4 19 8q10 5 21 5q10 0 18 -5q19 -12 35 -28q16 -15 20 -40q1 -9 3 -18q1 -8 3 -17q11 -40 39 -60q27 -20 64 -28q36 -8 60 14
q25 21 26 60v17v18q4 33 -11 57q-15 23 -38 43q-19 17 -42 29q-22 11 -46 21q-33 13 -65 33q-31 20 -60 43q-18 14 -28 33q-10 18 -14 40q-4 19 -4 38q-1 19 -1 37q1 44 22 77q22 33 55 59q11 9 24 15t27 6l68 6l68 6l1 -1v-2z" />
    <glyph glyph-name="t" unicode="t" horiz-adv-x="847" 
d="M356 148q1 12 2 23q2 12 0 24q-6 70 -9 140t-5 140q-1 23 -10 33t-32 12q-28 3 -56 2q-28 0 -56 2q-25 1 -49 3q-25 2 -50 7q-21 4 -34 17t-18 37q-4 26 -7 51q-3 20 -3 41v10q1 27 21 43q16 13 35 13q5 0 11 -1q18 -4 37 -8q19 -3 37 -7q5 -1 9 -2q5 -2 8 0q17 4 33 4
q17 1 34 -1q30 -4 61 -7q31 -4 62 7q37 0 73 3t73 8q18 3 37 0q19 -4 38 -4q34 -1 67 -1q34 0 68 -1q32 -1 42 -8q10 -6 17 -39q6 -24 8 -49q2 -18 2 -36v-13q0 -7 -1 -15q-1 -7 -3 -14q-6 -25 -19 -36q-12 -11 -41 -14q-27 -1 -55 -2h-55q-6 0 -11 1q-6 1 -12 1
q-58 0 -69 -8q-10 -8 -14 -66q-1 -18 0 -35t3 -34q5 -53 11 -107q5 -54 8 -107q1 -32 -4 -64q-5 -33 -10 -64q-2 -20 -19 -32q-12 -8 -24 -8q-6 0 -12 2q-23 7 -46 9q-23 1 -46 1q-10 0 -16 4q-6 3 -8 15q-2 20 -7 39q-4 20 1 41q3 12 2 26q-1 13 -1 26v-2h2z" />
    <glyph glyph-name="u" unicode="u" horiz-adv-x="730" 
d="M26 586v51v51q0 14 8 23t21 11q23 5 45 8q22 4 45 5q14 1 27 -1q14 -2 27 -6q17 -5 25 -19q8 -13 2 -31q-6 -20 -6 -40q-1 -20 1 -40q6 -45 9 -91t15 -90q5 -23 9 -45q5 -22 9 -45q6 -27 18 -51q11 -24 33 -42q3 -1 5 -3q2 -1 4 -4q10 -17 25 -29q14 -12 35 -9
q25 5 48 15q23 11 38 35q19 31 32 65q12 33 14 71q6 67 -4 134q-10 66 -20 133q-4 12 -7 25t-4 27q-2 22 9 32q12 11 33 10h3q2 0 2 -1q25 -7 50 -7q24 0 50 7q8 3 15 3q13 0 22 -7q15 -11 21 -37q9 -37 9 -74q0 -38 -3 -76q-4 -54 -8 -107q-4 -54 8 -107q4 -15 4 -30
q0 -5 -1 -10q-1 -20 -3 -41q-1 -9 -3 -19q-3 -9 -8 -17q-14 -21 -23 -43t-17 -45q-8 -22 -22 -38t-34 -25q-39 -16 -76 -36q-36 -19 -78 -28q-6 -2 -13 -4q-5 -2 -9 -2h-3q-33 4 -67 8q-33 4 -62 24q-7 4 -14 9q-6 5 -14 7q-15 5 -24 15q-10 10 -20 22q-21 24 -39 51t-34 54
q-39 69 -61 144q-22 74 -39 150q-6 26 -5 54v54q-1 0 -1 1v0z" />
    <glyph glyph-name="v" unicode="v" horiz-adv-x="811" 
d="M149 710q9 -4 16 -9q8 -4 16 -9q4 -3 7 -8t5 -10q29 -59 67 -113q37 -55 77 -108q15 -20 28 -42t28 -43q6 -8 12 -7q6 0 13 10q40 73 81 146t81 145q3 9 8 17t11 15q5 5 13 11q7 5 13 5q31 -2 61 3q12 2 24 2q19 0 37 -5q3 -1 5 -1q3 0 5 -1q20 -6 26 -22q2 -6 2 -12
q0 -11 -7 -22l-22 -34q-12 -16 -22 -34q-9 -14 -15 -28q-7 -15 -14 -29q-12 -25 -24 -51q-13 -25 -25 -50q-15 -32 -30 -63q-15 -32 -30 -63q-9 -17 -16 -35q-8 -17 -17 -33q-25 -41 -45 -83q-19 -43 -26 -90q-3 -20 -13 -32q-11 -11 -31 -15q-5 -1 -10 -4t-9 -4
q-12 -4 -22 -4q-8 0 -16 3q-15 7 -25 27q-4 9 -6 18q-3 9 -7 17q-9 20 -16 42q-6 22 -26 37q-5 4 -7 13q-1 9 -4 17q-4 10 -8 19q-3 10 -9 20q-32 53 -65 105q-32 52 -65 104q-4 8 -9 17q-4 8 -11 15q-25 29 -42 62q-17 34 -33 67q-6 13 -13 24t-14 23q-4 11 -5 21q0 7 3 14
q6 17 24 23q24 7 48 12z" />
    <glyph glyph-name="w" unicode="w" horiz-adv-x="807" 
d="M582 288q8 21 10 41l4 42q3 71 6 143t7 144q0 23 8 31t31 17q22 8 45 8h6q26 -1 52 -1q16 0 28 -10q11 -9 11 -18v-1q-2 -25 -4 -49q-3 -25 -5 -50q-2 -8 -4 -15q-3 -8 -3 -15q4 -61 -7 -120q-10 -60 -1 -120q1 -2 1 -5t-1 -6q-10 -55 -5 -109q4 -55 5 -110v-6v-5l-2 -32
q-2 -16 -22 -26q-22 -11 -44 -14q-21 -4 -44 10q-33 20 -60 47q-26 27 -54 54q-31 30 -61 61q-30 32 -59 62q-4 4 -9 6q-4 2 -9 6q-8 -7 -16 -12t-12 -13q-20 -38 -52 -65t-58 -60q-3 -5 -7 -8q-5 -4 -6 -8q-2 -25 -19 -40t-27 -35q-3 -4 -7 -8l-7 -7q-25 -19 -50 -20
q-3 0 -5 1q-28 2 -57 14q-10 5 -15 14q-5 10 -4 21q4 24 4 47q-1 24 -7 47q-1 4 0 10q1 5 1 11q7 45 7 91q-1 45 -8 91q-10 70 -15 140q-6 70 -13 140q-1 14 -4 26t-6 25q-1 5 -1 9q0 5 2 10q3 8 13 11q15 5 30 8q15 4 31 6q9 1 18 1t19 1q25 1 37 -10q11 -10 12 -36v-8v-8
q-3 -61 2 -122t11 -123q1 -12 2 -25q1 -14 4 -26q0 -3 3 -7q2 -3 5 -3t6 2q4 1 7 4q22 33 49 64q28 30 56 59q5 6 11 12q5 6 11 11q7 7 16 8q8 2 17 -4q4 -3 9 -7q4 -4 9 -4q25 2 39 -14q13 -15 27 -31q17 -18 34 -37q16 -18 32 -37q12 -16 25 -33q13 -16 27 -33zM708 612
q1 -2 1 -5q1 -2 2 -5l3 -3l4 -4q1 3 2 5t1 5v5v1q0 3 -1 4q-1 2 -3 3q-2 2 -4 2q-1 -1 -2 -3t-3 -5z" />
    <glyph glyph-name="x" unicode="x" horiz-adv-x="723" 
d="M366 474q25 15 40 35q16 19 31 38q15 20 33 38l36 36l42 40q21 21 43 41q14 14 25 16h3q10 0 25 -11q9 -7 18 -13q10 -6 21 -9q5 -3 12 -10t7 -12q-2 -22 1 -44q2 -23 -18 -41q-16 -15 -33 -31q-17 -15 -33 -31q-31 -30 -61 -62q-29 -32 -58 -63q-15 -16 -16 -26
q0 -10 14 -27q9 -13 19 -24q11 -11 23 -20q22 -16 40 -35q18 -20 35 -41q12 -16 26 -31q15 -14 30 -27q17 -15 21 -35q3 -20 11 -39q1 -2 1 -4q0 -1 -1 -3q-1 -5 -3 -8q-9 -10 -17 -22t-20 -18q-16 -7 -29 -16q-13 -8 -22 -26q-6 -12 -20 -14h-4q-11 0 -21 6q-8 6 -17 12
q-8 7 -14 15q-29 42 -66 77q-36 35 -71 72q-10 10 -18 21t-17 22q-10 13 -15 13q-6 1 -17 -9q-29 -26 -59 -52q-29 -26 -59 -51l-34 -28q-17 -13 -33 -27q-10 -8 -19 -16q-9 -9 -18 -19q-8 -8 -16 -10q-9 -2 -20 0q-17 2 -28 11q-12 9 -21 22q-3 3 -4 9q-1 5 -1 10q0 7 3 13
q2 7 0 12q-6 14 -6 25q0 13 7 23q13 20 29 37q17 17 35 32q19 15 37 32q25 25 49 51q25 26 49 51q7 7 8 14q0 7 -6 13q-16 18 -28 39q-13 21 -29 39q-33 37 -65 78q-31 40 -65 79q-17 19 -16 39q1 21 7 41q1 6 8 11q8 5 15 7q20 6 44 10q23 4 47 9q8 1 15 -1q6 -3 11 -10
l98 -110q49 -56 99 -113z" />
    <glyph glyph-name="y" unicode="y" horiz-adv-x="722" 
d="M275 76v16q0 7 1 14q10 42 6 85q-3 43 -2 85q1 10 -4 19q-4 8 -9 15l-32 42q-15 21 -31 42q-13 17 -25 34q-13 17 -25 35q-26 36 -54 70q-28 33 -58 65q-13 13 -21 28q-7 11 -7 26q0 4 1 8q1 8 5 14t11 7q20 1 37 10t34 17q6 4 12 4q2 0 4 -1q7 -2 12 -9q29 -45 66 -82
t72 -75q21 -22 44 -43t42 -46q7 -9 14 -10q7 0 14 8q17 20 33 41q16 20 32 41q11 14 21 28q10 15 21 29l20 26t20 27q11 15 24 29t31 22q5 3 11 6q6 2 12 2q18 -5 38 -10q19 -5 37 -12q12 -5 16 -27q2 -9 2 -16q0 -10 -4 -17q-4 -6 -9 -11q-4 -5 -9 -10q-8 -8 -16 -15
t-13 -16q-27 -39 -57 -76q-31 -36 -60 -73q-15 -17 -29 -35q-15 -17 -31 -32q-15 -16 -22 -33q-6 -18 -6 -40q2 -50 3 -101q0 -52 1 -102v-10v-9q-2 -38 -9 -46q-6 -7 -43 -15q-7 -1 -12 -2q-6 -1 -11 -4q-11 -5 -21 -5h-4q-12 1 -26 3q-23 4 -33 19q-9 14 -12 34
q-2 8 -2 16v16z" />
    <glyph glyph-name="z" unicode="z" horiz-adv-x="762" 
d="M330 180q45 -5 88 -10t86 3q19 3 38 3t37 -5q19 -5 38 -5t38 2q26 2 36 -5q11 -7 22 -31q9 -18 15 -38q7 -19 11 -39q2 -6 2 -12q0 -10 -5 -18q-7 -11 -25 -15q-13 -3 -27 -4q-15 -1 -28 2q-25 4 -51 4q-25 0 -51 -1q-34 -2 -68 -3t-69 -2q-36 -1 -71 -2q-36 -1 -72 -6
q-27 -4 -55 -1q-28 4 -56 -3q-9 -2 -18 -2t-17 -3q-12 -5 -24 -5q-6 0 -11 1q-17 3 -35 8q-13 5 -21 14t-10 23q0 22 -1 45t-1 45q0 18 8 32t24 23q11 5 20 12q10 6 19 12q29 17 51 42t44 49q41 42 80 86t78 87q9 10 16 20q7 11 14 21q1 1 -1 5q-1 5 -3 8l-2 1h-3
q-39 0 -78 6t-79 -5q-3 0 -7 -1t-7 -1q-23 7 -45 8q-23 0 -46 -2q-4 0 -8 1q-5 0 -7 2q-21 21 -37 58t-2 71q6 13 15 20q9 6 24 7q26 0 51 2t51 3q22 1 45 4t46 5q46 4 91 7t91 3q14 0 28 1q14 2 28 2q32 1 64 1q12 1 25 1q19 0 38 -1q20 0 32 -12q12 -11 15 -32
q1 -18 1 -36v-36q0 -17 -11 -29q-10 -12 -24 -17q-34 -14 -61 -37q-27 -24 -56 -44q-18 -12 -32 -29t-26 -35q-19 -28 -37 -57q-19 -29 -43 -54q-1 -1 -1 -2l-2 -2q-9 -14 -17 -28q-9 -14 -19 -27q-8 -14 -19 -26q-10 -12 -21 -27z" />
  </font>
</defs>
</svg>
