<svg xmlns="http://www.w3.org/2000/svg" width="343.295" height="688.437"><rect width="326" height="671" rx="47" transform="translate(8 9.664)" fill="#fff"/><path d="M119.302 661.926h103.81a2.015 2.015 0 0 1 0 4.025h-103.81a2.015 2.015 0 0 1 0-4.025z" fill="#fff" fill-rule="evenodd" opacity=".2"/><path d="M341.15 157.771V49.873A49.873 49.873 0 0 0 291.277 0H51.588A49.873 49.873 0 0 0 1.715 49.873v42.371H.16v26.384h1.555v22.288A4 4 0 0 0 0 144.208v44.558a4.017 4.017 0 0 0 1.715 3.292v12.4A4.017 4.017 0 0 0 0 207.749v44.563a4.017 4.017 0 0 0 1.715 3.288v382.964a49.873 49.873 0 0 0 49.873 49.873h239.689a49.873 49.873 0 0 0 49.873-49.873v-400.3a2.651 2.651 0 0 0 2.145-2.6v-75.289a2.651 2.651 0 0 0-2.145-2.6zm-18.515 481.7a32.112 32.112 0 0 1-32.112 32.112H52.343a32.112 32.112 0 0 1-32.112-32.112V50.029a32.116 32.116 0 0 1 32.112-32.116h30.806a4.4 4.4 0 0 1 4.215 4.215v2.731a16.787 16.787 0 0 0 16.787 16.787h134.324a16.787 16.787 0 0 0 16.77-16.783v-2.575h.038A4.4 4.4 0 0 1 259.5 17.9h31.021a32.116 32.116 0 0 1 32.112 32.112z"/><path d="M292.377 3.705H51.108A44.765 44.765 0 0 0 6.343 48.466v591.56a44.765 44.765 0 0 0 44.765 44.744h241.269a44.761 44.761 0 0 0 44.761-44.76V48.466a44.761 44.761 0 0 0-44.761-44.761zm30.258 635.769a32.112 32.112 0 0 1-32.112 32.112H52.343a32.112 32.112 0 0 1-32.112-32.112V50.029a32.116 32.116 0 0 1 32.112-32.116h30.805a4.4 4.4 0 0 1 4.215 4.215v2.731a16.787 16.787 0 0 0 16.787 16.787h134.325a16.787 16.787 0 0 0 16.768-16.783v-2.575h.038a4.4 4.4 0 0 1 4.214-4.392h31.021a32.116 32.116 0 0 1 32.114 32.109z"/></svg>