<svg width="24" height="33" fill="none" xmlns="http://www.w3.org/2000/svg"><path d="M23.709 26.757l-1.61-3.022v-7.461c0-4.613-3.098-8.515-7.322-9.737V2.812A2.815 2.815 0 0 0 11.965 0a2.815 2.815 0 0 0-2.812 2.812v3.725C4.928 7.759 1.83 11.66 1.83 16.274v7.461L.22 26.757a1.845 1.845 0 0 0 .047 1.832c.34.565.936.902 1.595.902h6.391A3.722 3.722 0 0 0 11.965 33a3.722 3.722 0 0 0 3.711-3.509h6.391c.66 0 1.256-.337 1.595-.902.34-.566.357-1.25.047-1.832zM10.64 2.812a1.326 1.326 0 0 1 2.648 0v3.414a10.181 10.181 0 0 0-2.648 0V2.812zM3.318 16.274c0-4.768 3.88-8.646 8.647-8.646s8.646 3.878 8.646 8.646v6.846H3.318v-6.846zm8.647 15.238a2.232 2.232 0 0 1-2.22-2.02h4.44a2.233 2.233 0 0 1-2.22 2.02zm10.421-3.69a.366.366 0 0 1-.319.181H1.862a.366.366 0 0 1-.319-.18.366.366 0 0 1-.009-.367l1.518-2.848h17.826l1.517 2.848a.367.367 0 0 1-.009.367z" fill="#555"/></svg>