<svg width="39" height="39" fill="none" xmlns="http://www.w3.org/2000/svg"><path d="M19.5 0C8.73 0 0 8.73 0 19.5S8.73 39 19.5 39 39 30.27 39 19.5C38.988 8.736 30.264.012 19.5 0zm16.865 26.331l-5.546.957a29.096 29.096 0 0 0 1.02-7.138h5.845a18.08 18.08 0 0 1-1.32 6.181zM1.316 20.15H7.16a29.1 29.1 0 0 0 1.02 7.138l-5.545-.957a18.079 18.079 0 0 1-1.319-6.181zm1.32-7.481l5.545-.957a29.1 29.1 0 0 0-1.02 7.138H1.315c.073-2.122.52-4.215 1.32-6.181zm17.514-2.232c2.336.03 4.666.242 6.968.636l2.295.396a27.903 27.903 0 0 1 1.127 7.381H20.15v-8.414zm7.19-.645a46.073 46.073 0 0 0-7.19-.655v-7.8c3.726.358 6.963 3.77 8.798 8.735l-1.608-.28zm-8.49-.655c-2.41.03-4.813.249-7.189.655l-1.609.278c1.835-4.967 5.072-8.38 8.798-8.736v7.803zm-6.968 1.936a44.697 44.697 0 0 1 6.968-.636v8.413H8.46c.043-2.5.423-4.983 1.127-7.381l2.296-.396zM8.46 20.15h10.39v8.414a44.708 44.708 0 0 1-6.968-.637l-2.294-.396A27.901 27.901 0 0 1 8.46 20.15zm3.2 9.058a46.22 46.22 0 0 0 7.19.659v7.8c-3.726-.358-6.963-3.77-8.798-8.736l1.608.277zm8.49.659a46.215 46.215 0 0 0 7.189-.659l1.609-.278c-1.835 4.967-5.072 8.38-8.798 8.736v-7.799zm6.968-1.94a44.697 44.697 0 0 1-6.968.637V20.15h10.39a27.903 27.903 0 0 1-1.127 7.381l-2.296.396zm4.722-9.077a29.096 29.096 0 0 0-1.02-7.138l5.545.957a18.08 18.08 0 0 1 1.319 6.181H31.84zm3.867-7.614l-5.316-.917a17.924 17.924 0 0 0-5.171-8.093 18.287 18.287 0 0 1 10.487 9.01zM13.78 2.226A17.924 17.924 0 0 0 8.61 10.32l-5.316.917a18.286 18.286 0 0 1 10.487-9.01zM3.293 27.764l5.316.917a17.924 17.924 0 0 0 5.171 8.093 18.287 18.287 0 0 1-10.487-9.01zm21.927 9.01a17.924 17.924 0 0 0 5.171-8.093l5.316-.917a18.287 18.287 0 0 1-10.487 9.01z" fill="#BBB"/></svg>