<svg width="159" height="35" xmlns="http://www.w3.org/2000/svg"><g fill="none" fill-rule="evenodd"><path d="M127.027 28.038V11.872c0-5.868-3.047-9.283-8.07-9.283-4.597 0-8.606 3.521-8.606 9.603v15.846h-2.62V11.712c0-5.655-3.099-9.123-7.963-9.123s-8.712 4.268-8.712 9.764v15.685h-2.618V.828h2.618v4.856C92.821 2.857 95.28.188 100.143.188c4.757 0 7.695 2.722 9.192 5.869 1.764-3.04 4.705-5.869 9.836-5.869 6.466 0 10.475 4.536 10.475 11.365v16.485h-2.619zm29.145-14.834C155.8 7.687 152.65 2.6 146.406 2.6c-5.391 0-9.554 4.552-10.033 10.605h19.8zm-9.127 13.123c4.217 0 7.1-1.875 9.34-4.286l1.815 1.607c-2.775 3-6.031 5.142-11.261 5.142-7.151 0-13.341-5.731-13.341-14.248v-.106c0-7.927 5.55-14.248 12.915-14.248C154.144.188 159 6.402 159 14.49v.107c0 .376 0 .536-.053.964h-22.574c.48 6.802 5.336 10.767 10.672 10.767z" fill="#38CECE"/><path d="M77.104 20.008a7.612 7.612 0 0 1-10.789 0c-2.974-2.99-2.974-7.853 0-10.843A7.56 7.56 0 0 1 71.71 6.92a7.56 7.56 0 0 1 5.394 2.245 3.41 3.41 0 0 0 2.434 1.014c.92 0 1.785-.36 2.434-1.014a3.445 3.445 0 0 0 1.01-2.446c0-.924-.359-1.793-1.01-2.446A14.38 14.38 0 0 0 71.71 0a14.38 14.38 0 0 0-10.263 4.273c-2.738 2.75-4.245 6.413-4.245 10.314 0 3.9 1.507 7.564 4.245 10.314a14.382 14.382 0 0 0 10.263 4.266A14.38 14.38 0 0 0 81.972 24.9a3.476 3.476 0 0 0 0-4.893 3.435 3.435 0 0 0-4.868 0M53.765 0H32.227a3.448 3.448 0 0 0-3.438 3.452 3.448 3.448 0 0 0 3.438 3.452h7.332v19.563a3.449 3.449 0 0 0 3.437 3.452 3.449 3.449 0 0 0 3.437-3.452V6.904h7.332a3.448 3.448 0 0 0 3.437-3.452A3.448 3.448 0 0 0 53.765 0" fill="#346AEB"/><path d="M14.475 35l-5.348-5.35c-1.368-1.37-1.395-3.638 0-4.98a3.446 3.446 0 0 1 4.826.05l.05.05a.669.669 0 0 0 .947 0c1.369-1.368 3.635-1.396 4.976 0a3.452 3.452 0 0 1-.05 4.829l-5.397 5.4h-.004" fill="#38CECE"/><path d="M24.476 22.89a3.455 3.455 0 0 1-3.097-4.978 7.632 7.632 0 0 0-1.455-8.757c-2.973-2.975-7.81-2.975-10.783 0a7.632 7.632 0 0 0-1.455 8.757 3.456 3.456 0 0 1-1.578 4.623 3.452 3.452 0 0 1-4.621-1.579A14.544 14.544 0 0 1 4.257 4.27c5.666-5.669 14.885-5.669 20.55 0a14.544 14.544 0 0 1 2.771 16.687 3.453 3.453 0 0 1-3.102 1.934" fill="#346AEB"/></g></svg>