<?xml version="1.0" encoding="iso-8859-1"?>
<!-- Generator: Adobe Illustrator 18.1.1, SVG Export Plug-In . SVG Version: 6.00 Build 0)  -->
<svg version="1.1" id="Capa_1" xmlns="http://www.w3.org/2000/svg" xmlns:xlink="http://www.w3.org/1999/xlink" x="0px" y="0px"
	 viewBox="0 0 41.537 41.537" style="enable-background:new 0 0 41.537 41.537;" xml:space="preserve">
<g>
	<g>
		<path style="fill:#010002;" d="M34.115,10c-2.146,0-4.29,0-6.436,0c0-2.998,0-5.996,0-8.994c0-0.002,0-0.004,0-0.006
			c0-0.545-0.455-1-1-1c-3.912,0-7.824,0-11.735,0c-0.545,0-1,0.455-1,1c0,3,0,6,0,9c0,0,0,0-0.001,0c-2.174,0-4.347,0-6.521,0
			c-0.545,0-1,0.455-1,1c0,5.853,0,11.707,0,17.56c0,3.992,0,7.983,0,11.977c0,0.545,0.455,1,1,1c6.058,0,12.115,0,18.173,0
			c2.842,0,5.68,0,8.52,0c0.272,0,0.476-0.102,0.633-0.243c0.023-0.019,0.05-0.032,0.07-0.054c0.02-0.021,0.032-0.043,0.049-0.064
			c0.145-0.158,0.248-0.361,0.248-0.639c0-5.854,0-11.707,0-17.561c0-3.993,0-7.982,0-11.976C35.115,10.455,34.66,10,34.115,10z
			 M15.945,2c3.246,0,6.491,0,9.735,0c0,2.667,0,5.333,0,8h-0.001c-3.245,0-6.489,0-9.734,0C15.945,7.333,15.945,4.667,15.945,2z
			 M12.299,39.535c-1.292,0-2.583,0-3.875,0c0-1.318,0-2.636,0-3.954c1.292,0,2.583,0,3.875,0
			C12.299,36.899,12.299,38.217,12.299,39.535z M33.115,39.535c-1.272,0-2.545,0-3.816,0c0-1.318,0-2.636,0-3.954
			c1.271,0,2.544,0,3.816,0C33.115,36.899,33.115,38.217,33.115,39.535z M33.115,28.56c0,2.008,0,4.016,0,6.021
			c-1.438,0-2.877,0-4.316,0c-0.273,0-0.5,0.227-0.5,0.5c0,1.484,0,2.971,0,4.454c-4.118,0-8.237,0-12.356,0
			c-0.881,0-1.763,0-2.644,0c0-1.483,0-2.97,0-4.454c0-0.273-0.227-0.5-0.5-0.5c-1.458,0-2.917,0-4.375,0c0-3.868,0-7.736,0-11.605
			c0-3.659,0-7.316,0-10.976c1.84,0,3.681,0,5.521,0c0.667,0,1.333,0,2,0c3.217,0,6.435,0,9.652,0c0.027,0,0.056,0,0.083,0
			c0.667,0,1.333,0,2,0c1.812,0,3.624,0,5.436,0C33.115,17.52,33.115,23.04,33.115,28.56z"/>
		<path style="fill:#010002;" d="M21.894,23.817c0.397-0.885,0.497-2.26-0.735-2.839c-1.707-0.803-2.95,0.967-2.575,1.542
			c0.134,0.129,0.392-0.036,0.614-0.148c0.247-0.123,0.45-0.18,0.392,0.309c-0.098,0.819-2.026,5.685-0.577,7.25
			c0.823,0.889,2.195,0.461,2.779-0.074c0.194-0.178,0.344-0.424,0.336-0.717c-0.007-0.257-0.381-0.242-0.453-0.233
			c-1.26,0.161-0.823-1.472-0.751-1.784C21.092,26.392,21.686,24.28,21.894,23.817z"/>
		<circle style="fill:#010002;" cx="20.578" cy="18.005" r="1.316"/>
	</g>
</g>
<g>
</g>
<g>
</g>
<g>
</g>
<g>
</g>
<g>
</g>
<g>
</g>
<g>
</g>
<g>
</g>
<g>
</g>
<g>
</g>
<g>
</g>
<g>
</g>
<g>
</g>
<g>
</g>
<g>
</g>
</svg>
