<?xml version="1.0" encoding="iso-8859-1"?>
<!-- Generator: Adobe Illustrator 19.0.0, SVG Export Plug-In . SVG Version: 6.00 Build 0)  -->
<svg version="1.1" id="Capa_1" xmlns="http://www.w3.org/2000/svg" xmlns:xlink="http://www.w3.org/1999/xlink" x="0px" y="0px"
	 viewBox="0 0 512 512" style="enable-background:new 0 0 512 512;" xml:space="preserve">
<g>
	<g>
		<path d="M256,0C150.112,0,64,86.112,64,192c0,133.088,173.312,307.936,180.672,315.328C247.808,510.432,251.904,512,256,512
			s8.192-1.568,11.328-4.672C274.688,499.936,448,325.088,448,192C448,86.112,361.888,0,256,0z M256,472.864
			C217.792,431.968,96,293.664,96,192c0-88.224,71.776-160,160-160s160,71.776,160,160C416,293.568,294.208,431.968,256,472.864z"/>
	</g>
</g>
<g>
	<g>
		<path d="M320,144c0-26.464-21.536-48-48-48h-64c-8.832,0-16,7.168-16,16v128c0,8.832,7.168,16,16,16h64c26.464,0,48-21.536,48-48
			c0-12.352-4.8-23.488-12.48-32C315.2,167.488,320,156.352,320,144z M272,224h-48v-32h48c8.8,0,16,7.168,16,16
			C288,216.832,280.8,224,272,224z M272,160h-48v-32h48c8.8,0,16,7.168,16,16C288,152.832,280.8,160,272,160z"/>
	</g>
</g>
<g>
</g>
<g>
</g>
<g>
</g>
<g>
</g>
<g>
</g>
<g>
</g>
<g>
</g>
<g>
</g>
<g>
</g>
<g>
</g>
<g>
</g>
<g>
</g>
<g>
</g>
<g>
</g>
<g>
</g>
</svg>
