<?xml version="1.0" encoding="iso-8859-1"?>
<!-- Generator: Adobe Illustrator 19.0.0, SVG Export Plug-In . SVG Version: 6.00 Build 0)  -->
<svg version="1.1" id="Layer_1" xmlns="http://www.w3.org/2000/svg" xmlns:xlink="http://www.w3.org/1999/xlink" x="0px" y="0px"
	 viewBox="0 0 384 384" style="enable-background:new 0 0 384 384;" xml:space="preserve">
<g>
	<g>
		<path d="M373.333,0h-128c-4.313,0-8.208,2.594-9.854,6.583c-1.656,3.99-0.74,8.573,2.313,11.625l35.125,35.125L53.333,272.917
			l-35.125-35.125c-3.042-3.042-7.604-3.969-11.625-2.313C2.594,237.125,0,241.021,0,245.333v128C0,379.229,4.771,384,10.667,384
			h128c4.313,0,8.208-2.594,9.854-6.583c1.656-3.99,0.74-8.573-2.313-11.625l-35.125-35.125l219.583-219.583l35.125,35.125
			c3.063,3.063,7.667,3.979,11.625,2.313c3.99-1.646,6.583-5.542,6.583-9.854v-128C384,4.771,379.229,0,373.333,0z M362.667,112.917
			l-24.458-24.458c-4.167-4.167-10.917-4.167-15.083,0L88.458,323.125c-4.167,4.167-4.167,10.917,0,15.083l24.458,24.458H21.333
			v-91.583l24.458,24.458c4.167,4.167,10.917,4.167,15.083,0L295.542,60.875c4.167-4.167,4.167-10.917,0-15.083l-24.458-24.458
			h91.583V112.917z"/>
	</g>
</g>
<g>
</g>
<g>
</g>
<g>
</g>
<g>
</g>
<g>
</g>
<g>
</g>
<g>
</g>
<g>
</g>
<g>
</g>
<g>
</g>
<g>
</g>
<g>
</g>
<g>
</g>
<g>
</g>
<g>
</g>
</svg>
