<?xml version="1.0" encoding="iso-8859-1"?>
<!-- Generator: Adobe Illustrator 19.1.0, SVG Export Plug-In . SVG Version: 6.00 Build 0)  -->
<svg version="1.1" id="Capa_1" xmlns="http://www.w3.org/2000/svg" xmlns:xlink="http://www.w3.org/1999/xlink" x="0px" y="0px"
	 viewBox="0 0 290.945 290.945" style="enable-background:new 0 0 290.945 290.945;" xml:space="preserve">
<g>
	<g>
		<path d="M9.197,191.348c1.811-0.604,3.018-1.207,4.829-1.811c8.451-3.622,16.901-6.64,25.352-6.64l0,0
			c5.433,0,10.865,1.207,16.298,3.018c3.622,1.207,7.847,1.811,11.469,2.414c13.883,2.414,27.163,0,40.443-2.414
			c8.451-1.207,15.694-2.414,23.541-3.018c4.829,0,8.451,0,11.469,1.207c3.018,0.604,6.036,2.414,9.054,3.622
			c1.811,0.604,3.018,1.207,4.829,2.414c10.262,4.225,21.127,6.036,31.388,6.036c16.901,0,33.803-4.225,48.29-8.451
			c3.622-1.207,6.64-1.811,9.054-1.811c2.414,0,5.433,1.811,8.451,3.018c1.207,0.604,2.414,1.207,3.622,1.811
			c8.451,3.622,18.109,4.829,27.163,3.622c3.018-0.604,5.433-3.622,4.829-6.64c-0.604-3.018-3.622-5.433-6.64-4.829
			c-7.243,1.207-13.883,0-20.523-2.414c-1.207-0.604-2.414-1.207-3.018-1.207c-3.622-1.811-7.847-3.622-12.676-4.225
			c-4.829-0.604-9.658,1.207-13.883,2.414c-21.127,6.64-48.29,12.676-71.227,3.018c-1.207-0.604-3.018-1.207-4.225-1.811
			c-3.622-1.811-7.244-3.018-10.865-4.225c-4.225-1.207-9.054-1.811-15.091-1.207c-8.451,0-16.901,1.811-25.352,3.018
			c-12.676,1.811-24.749,4.225-36.821,2.414c-3.622-0.604-6.64-1.207-10.262-2.414c-6.036-1.811-12.676-3.018-19.316-3.622
			c-10.865,0-20.523,3.622-30.181,7.847c-1.811,0.604-3.018,1.207-4.829,1.811c-3.018,1.207-4.829,4.829-3.622,7.847
			C2.557,190.745,6.179,192.555,9.197,191.348z"/>
		<path d="M9.197,238.431c1.811-0.604,3.018-1.207,4.829-1.811c8.451-3.622,16.901-6.64,25.352-6.64l0,0
			c5.433,0,10.865,1.207,16.298,3.018c3.622,1.207,7.847,1.811,11.469,2.414c13.883,2.414,27.163,0,40.443-2.414
			c8.451-1.207,15.694-2.414,23.541-3.018c4.829,0,8.451,0,11.469,1.207c3.018,0.604,6.036,2.414,9.054,3.622
			c1.811,0.604,3.018,1.207,4.829,2.414c10.262,4.225,21.127,6.036,31.388,6.036c16.901,0,33.803-4.225,48.29-8.451
			c3.622-1.207,6.64-1.811,9.054-1.811c2.414,0,5.433,1.811,8.451,3.018c1.207,0.604,2.414,1.207,3.622,1.811
			c8.451,3.622,18.109,4.829,27.163,3.622c3.018-0.604,5.433-3.622,4.829-6.64c-0.604-3.018-3.622-5.433-6.64-4.829
			c-7.243,1.207-13.883,0-20.523-2.414c-1.207-0.604-2.414-1.207-3.018-1.207c-3.622-1.811-7.847-3.622-12.676-4.225
			c-4.829-0.604-9.658,1.207-13.883,2.414c-21.127,6.64-48.29,12.676-71.227,3.018c-1.207-0.604-3.018-1.207-4.225-1.811
			c-3.622-1.811-7.244-3.018-10.865-4.225c-4.225-1.207-9.054-1.811-15.091-1.207c-8.451,0-16.901,1.811-25.352,3.018
			c-12.676,1.811-24.749,4.225-36.821,2.414c-3.622-0.604-6.64-1.207-10.262-2.414c-6.036-1.811-12.676-3.018-19.316-3.622l0,0
			c-10.865,0-20.523,3.622-29.577,7.847c-1.811,0.604-3.018,1.207-4.829,1.811c-3.018,1.207-4.829,4.829-3.622,7.847
			C2.557,237.827,6.179,239.638,9.197,238.431z"/>
		<path d="M283.845,275.252c-7.243,1.207-13.883,0-20.523-2.414c-1.207-0.604-2.414-1.207-3.622-1.207
			c-3.622-1.811-7.847-3.622-12.676-4.225s-9.658,1.207-13.883,2.414c-21.127,6.64-48.29,12.676-71.227,3.018
			c-1.207-0.604-3.018-1.207-4.225-1.811c-3.622-1.811-7.243-3.018-10.865-4.225c-4.225-1.207-9.054-1.207-14.487-1.207
			c-8.451,0-16.901,1.811-25.352,3.018c-12.676,1.811-24.749,4.225-36.821,2.414c-3.622-0.604-6.64-1.207-10.262-2.414
			c-6.036-1.811-12.676-3.018-19.316-3.622l0,0c-10.865,0-20.523,3.622-29.577,7.847c-1.811,0.604-3.018,1.207-4.829,1.811
			c-3.018,1.207-4.829,4.829-3.622,7.847c1.207,3.018,4.829,4.829,7.847,3.622c1.811-0.604,3.018-1.207,4.829-1.811
			c8.451-3.622,16.901-6.64,25.352-6.64l0,0c5.433,0,10.865,1.207,16.298,3.018c3.622,1.207,7.847,1.811,11.469,2.414
			c13.883,2.414,27.163,0,40.443-2.414c8.451-1.207,15.694-2.414,23.541-3.018c4.829,0,8.451,0,11.469,1.207
			c3.018,0.604,6.036,2.414,9.054,3.622c1.811,0.604,3.018,1.207,4.829,2.414c10.262,4.225,21.127,6.036,31.388,6.036
			c16.901,0,33.803-4.225,48.29-8.451c3.622-1.207,6.64-1.811,9.054-1.811s5.433,1.811,8.451,3.018
			c1.207,0.604,2.414,1.207,3.622,1.811c8.451,3.622,18.109,4.829,27.163,3.622c3.018-0.604,5.433-3.622,4.829-6.64
			C289.881,277.062,286.863,275.252,283.845,275.252z"/>
		<path d="M87.668,168.41c3.622,0,6.036-2.414,6.036-6.036v-30.181h79.075v30.181c0,3.622,2.414,6.036,6.036,6.036
			s6.036-2.414,6.036-6.036V22.938c0-6.036,4.829-10.865,10.262-10.865c6.036,0,10.262,4.829,10.262,10.865
			c0,3.622,2.414,6.036,6.036,6.036c3.622,0,6.036-2.414,6.036-6.036C217.446,10.261,207.185,0,195.112,0
			c-12.676,0-22.334,10.262-22.334,22.938v41.65H93.704v-41.65c0-6.036,4.829-10.865,10.262-10.865
			c6.036,0,10.262,4.829,10.262,10.865c0,3.622,2.414,6.036,6.036,6.036c3.622,0,6.036-2.414,6.036-6.036
			C126.3,10.261,116.038,0,103.966,0C91.289,0,81.632,10.262,81.632,22.938v139.437C81.632,165.996,84.65,168.41,87.668,168.41z
			 M173.382,76.66v43.461H94.308V76.66H173.382z"/>
	</g>
</g>
<g>
</g>
<g>
</g>
<g>
</g>
<g>
</g>
<g>
</g>
<g>
</g>
<g>
</g>
<g>
</g>
<g>
</g>
<g>
</g>
<g>
</g>
<g>
</g>
<g>
</g>
<g>
</g>
<g>
</g>
</svg>
