<?xml version="1.0" standalone="no"?>
<!DOCTYPE svg PUBLIC "-//W3C//DTD SVG 20010904//EN"
 "http://www.w3.org/TR/2001/REC-SVG-20010904/DTD/svg10.dtd">
<svg version="1.0" xmlns="http://www.w3.org/2000/svg"
 width="992.000000pt" height="992.000000pt" viewBox="0 0 992.000000 992.000000"
 preserveAspectRatio="xMidYMid meet">
<metadata>
Created by potrace 1.11, written by Peter Selinger 2001-2013
</metadata>
<g transform="translate(0.000000,992.000000) scale(0.100000,-0.100000)"
fill="#000000" stroke="none">
<path d="M4718 9915 c-2 -2 -47 -6 -102 -9 -54 -4 -108 -8 -120 -11 -11 -2
-46 -7 -76 -9 -30 -3 -82 -10 -115 -16 -88 -15 -148 -23 -167 -24 -10 0 -18
-4 -18 -9 0 -4 -3 -6 -8 -3 -4 2 -34 -2 -67 -10 -33 -7 -75 -16 -94 -19 -18
-3 -36 -7 -40 -10 -4 -2 -18 -6 -32 -9 -66 -13 -228 -62 -344 -102 -71 -25
-147 -51 -167 -57 -21 -6 -38 -15 -38 -20 0 -4 -4 -6 -9 -2 -5 3 -12 1 -16 -5
-4 -6 -11 -8 -16 -5 -5 4 -9 1 -9 -4 0 -6 -7 -11 -15 -11 -19 0 -185 -76 -330
-151 -130 -67 -150 -78 -275 -154 -52 -32 -110 -66 -127 -77 -18 -11 -33 -24
-33 -29 0 -5 -4 -9 -10 -9 -8 0 -97 -56 -110 -70 -3 -3 -48 -38 -100 -77 -52
-40 -108 -84 -125 -98 -16 -15 -57 -50 -90 -78 -78 -67 -309 -297 -370 -367
-26 -30 -57 -66 -69 -80 -53 -60 -226 -285 -226 -294 0 -3 -8 -15 -17 -25 -33
-36 -42 -49 -37 -53 2 -3 -5 -13 -16 -23 -11 -10 -20 -23 -20 -30 0 -7 -9 -20
-20 -30 -11 -10 -20 -22 -20 -26 0 -5 -16 -33 -35 -63 -19 -30 -35 -59 -35
-65 0 -5 -4 -11 -8 -13 -4 -1 -17 -21 -28 -43 -93 -182 -119 -231 -127 -236
-5 -3 -9 -10 -9 -15 0 -12 -13 -43 -37 -97 -58 -127 -152 -383 -143 -391 3 -3
1 -6 -5 -6 -5 0 -10 -6 -10 -12 0 -7 -13 -53 -28 -103 -23 -79 -32 -111 -39
-150 -1 -5 -5 -15 -9 -21 -3 -6 -7 -26 -9 -45 -1 -19 -5 -38 -8 -44 -4 -5 -10
-26 -14 -45 -3 -19 -8 -46 -11 -60 -3 -14 -7 -38 -10 -55 -2 -16 -7 -43 -10
-60 -8 -49 -14 -87 -20 -135 -3 -25 -7 -63 -10 -85 -20 -149 -26 -628 -11
-790 16 -169 32 -295 41 -323 3 -7 7 -31 10 -55 7 -49 13 -82 15 -82 1 0 3
-11 6 -25 4 -29 24 -114 54 -230 16 -63 50 -181 60 -205 4 -11 20 -56 35 -100
35 -102 111 -292 130 -327 8 -14 15 -33 15 -41 0 -9 4 -17 8 -19 5 -1 23 -34
41 -72 30 -64 86 -158 114 -193 28 -33 156 -163 162 -163 4 0 25 -16 48 -35
22 -19 46 -35 53 -35 7 0 14 -4 16 -8 9 -22 216 -109 308 -128 57 -12 63 -13
110 -20 54 -6 215 -6 250 1 14 3 39 7 57 10 81 11 236 65 323 113 107 59 215
150 306 257 33 39 124 192 124 208 0 7 7 22 15 34 8 12 16 29 18 40 1 10 5 23
9 28 7 12 22 83 17 87 -1 2 4 14 11 27 16 31 22 256 9 326 -6 28 -12 63 -14
78 -4 31 -28 100 -56 164 -11 24 -19 45 -19 47 0 2 -17 42 -39 88 -73 159
-157 425 -164 525 -1 18 -4 33 -7 33 -3 0 -6 12 -6 28 -1 15 -4 54 -8 87 -15
129 -10 416 10 520 3 17 5 37 6 45 0 8 4 31 9 50 4 19 10 46 13 60 15 80 30
137 38 148 6 6 7 12 3 12 -4 0 -2 7 5 15 7 8 10 15 6 15 -3 0 -1 12 5 28 6 15
12 34 14 42 7 32 81 199 127 289 51 98 195 321 208 321 4 0 12 10 17 23 25 53
278 307 368 370 17 12 32 24 35 27 3 4 34 26 70 50 36 24 67 46 70 49 3 3 21
15 40 26 19 10 53 29 75 42 50 29 227 115 240 117 6 1 19 7 30 13 21 11 197
70 231 78 10 2 34 8 52 14 17 5 32 7 32 4 0 -3 7 0 15 7 8 7 15 10 15 7 0 -3
15 -1 33 4 28 9 98 20 135 22 6 0 12 3 12 6 0 3 21 6 48 7 59 1 139 11 152 19
6 3 10 1 10 -5 0 -6 4 -8 10 -5 5 3 58 6 117 6 121 1 187 -4 358 -26 75 -9 79
-10 93 -18 6 -5 12 -6 12 -3 0 2 28 -3 63 -11 34 -8 67 -16 72 -17 6 -1 16 -5
23 -9 6 -5 12 -6 12 -3 0 6 215 -67 270 -91 68 -30 196 -93 250 -124 53 -30
190 -118 200 -129 3 -3 21 -17 40 -30 19 -13 40 -29 46 -35 6 -5 35 -30 65
-55 84 -71 220 -212 280 -290 19 -25 37 -47 40 -50 4 -3 41 -57 83 -120 76
-113 197 -346 212 -405 4 -16 10 -34 14 -40 7 -9 39 -102 44 -128 6 -30 19
-73 25 -82 6 -11 8 -21 16 -79 3 -21 8 -42 11 -47 3 -5 7 -26 10 -46 2 -21 7
-51 9 -68 18 -120 24 -397 11 -495 -3 -25 -8 -67 -11 -95 -5 -50 -10 -82 -19
-113 -3 -9 -7 -34 -11 -56 -3 -21 -7 -41 -10 -45 -2 -4 -6 -18 -9 -32 -19 -88
-72 -239 -122 -346 -33 -72 -55 -120 -59 -133 -1 -3 -7 -18 -14 -35 -7 -16
-14 -34 -15 -40 -1 -5 -4 -14 -8 -20 -5 -10 -21 -72 -18 -77 0 -2 -6 -23 -13
-48 -16 -54 -15 -288 2 -362 20 -90 44 -163 55 -170 6 -4 8 -8 3 -8 -9 0 55
-129 86 -174 76 -110 206 -240 268 -270 11 -5 19 -13 19 -18 0 -4 6 -8 14 -8
8 0 16 -3 18 -8 4 -10 122 -67 188 -91 168 -61 383 -80 545 -47 17 4 41 9 125
30 41 11 161 64 208 93 29 18 57 33 62 33 6 0 10 4 10 8 0 4 13 15 29 25 57
33 209 193 233 245 6 12 15 22 20 22 4 0 8 6 8 13 0 7 8 24 17 37 10 14 18 31
20 38 1 8 9 22 17 31 9 10 16 22 16 28 0 6 9 28 20 50 88 172 253 637 275 775
2 15 9 45 15 68 6 23 13 53 15 68 2 15 7 41 10 57 54 276 70 455 69 775 0 201
-4 288 -19 440 -11 106 -23 191 -40 278 -8 40 -14 76 -13 80 1 4 -4 27 -11 52
-8 25 -15 59 -18 75 -2 17 -11 49 -19 73 -8 23 -14 49 -14 57 0 8 -6 34 -14
57 -42 127 -80 254 -78 261 1 4 -2 7 -7 7 -5 0 -13 15 -17 32 -6 30 -31 95
-74 193 -10 22 -28 65 -41 95 -48 114 -203 402 -237 443 -8 9 -11 17 -6 17 5
0 5 4 -1 8 -12 8 -55 69 -55 76 0 3 -27 44 -60 90 -33 47 -60 87 -60 91 0 3
-11 17 -25 31 -14 14 -25 28 -25 32 0 4 -10 18 -22 32 -13 14 -52 61 -88 105
-147 181 -354 391 -549 555 -29 25 -61 52 -71 61 -10 8 -31 24 -45 35 -15 10
-52 39 -83 63 -79 60 -338 231 -351 231 -6 0 -11 4 -11 9 0 5 -8 11 -17 15
-10 3 -34 15 -53 27 -117 72 -435 223 -595 282 -38 15 -83 32 -100 38 -16 7
-32 13 -35 14 -3 0 -51 16 -108 34 -56 18 -110 34 -120 36 -9 2 -17 4 -17 5 0
1 -7 3 -15 5 -8 2 -58 15 -110 29 -52 14 -111 28 -130 30 -19 3 -55 11 -80 17
-46 12 -58 14 -124 23 -21 3 -46 7 -55 10 -16 5 -91 15 -146 21 -16 2 -55 6
-85 9 -30 4 -80 9 -110 12 -61 6 -597 14 -602 9z"/>
<path d="M4057 3304 c-1 -1 -20 -4 -42 -8 -61 -9 -92 -15 -119 -26 -13 -5 -27
-6 -30 -3 -3 4 -6 1 -6 -6 0 -7 -4 -10 -9 -7 -13 8 -179 -76 -241 -123 -85
-64 -166 -147 -221 -225 -53 -74 -112 -190 -125 -241 -4 -16 -10 -34 -14 -40
-4 -5 -13 -35 -19 -65 -6 -30 -14 -66 -16 -80 -3 -14 -7 -60 -10 -102 -2 -43
-6 -82 -10 -88 -3 -5 -3 -10 2 -10 4 0 8 -21 9 -48 1 -66 11 -138 30 -202 8
-30 19 -69 23 -85 4 -17 13 -39 18 -50 6 -11 28 -54 48 -96 20 -42 48 -89 61
-104 13 -16 24 -32 24 -36 0 -8 17 -27 104 -123 16 -17 86 -92 156 -166 70
-74 142 -151 160 -170 18 -19 85 -91 150 -160 65 -69 132 -141 150 -160 18
-19 87 -93 154 -164 66 -71 135 -143 151 -161 17 -17 82 -88 146 -156 64 -68
141 -150 170 -181 30 -32 88 -94 130 -138 l76 -80 94 101 c52 55 119 126 149
158 47 49 138 146 326 347 113 121 274 292 309 329 22 24 87 93 145 155 58 61
125 133 150 159 247 261 331 353 363 394 12 16 32 41 44 56 23 29 112 202 118
229 2 9 8 30 14 46 26 66 53 232 52 321 0 34 -12 164 -17 185 -3 14 -7 35 -9
47 -3 18 -14 58 -33 113 -3 8 -6 20 -8 25 -1 6 -10 28 -20 50 -10 22 -18 43
-18 47 -1 4 -7 13 -13 19 -7 7 -13 17 -13 21 0 5 -23 43 -51 84 -61 91 -211
244 -239 244 -6 0 -10 4 -10 8 0 8 -180 103 -204 109 -6 1 -36 9 -66 18 -80
23 -103 26 -225 30 -82 2 -132 -2 -195 -16 -47 -11 -92 -21 -100 -23 -8 -1
-33 -11 -55 -20 -22 -10 -45 -19 -51 -20 -7 -1 -19 -8 -28 -15 -9 -7 -16 -10
-16 -5 0 5 -4 5 -8 -1 -4 -5 -17 -16 -29 -22 -53 -29 -68 -39 -92 -58 -34 -27
-121 -105 -148 -133 -12 -12 -26 -23 -30 -23 -5 -1 -18 -5 -31 -10 -33 -13
-85 -11 -120 4 -16 7 -64 44 -105 82 -42 39 -95 84 -119 101 -80 58 -226 127
-290 138 -15 3 -31 7 -35 9 -20 12 -275 31 -286 21z"/>
</g>
</svg>
