<?xml version="1.0" encoding="UTF-8"?>
<svg width="68px" height="68px" viewBox="0 0 68 68" version="1.1" xmlns="http://www.w3.org/2000/svg" xmlns:xlink="http://www.w3.org/1999/xlink">
    <!-- Generator: Sketch 50 (54983) - http://www.bohemiancoding.com/sketch -->
    <title>ok-big</title>
    <desc>Created with Sketch.</desc>
    <defs></defs>
    <g id="Visual-Design" stroke="none" stroke-width="1" fill="none" fill-rule="evenodd">
        <g id="OTCme-Landing-Page-·-Desktop-1440px-·-V3-Waitlist-Contact-Form-03" transform="translate(-686.000000, -364.000000)">
            <g id="Group-6">
                <g id="ok-big" transform="translate(686.000000, 364.000000)">
                    <g fill="#38CDCD" id="Fill-1">
                        <path d="M67.9092737,34.0456316 C67.9092737,52.7975263 52.7076947,68.0008947 33.9540105,68.0008947 C15.2021158,68.0008947 0.000536842105,52.7975263 0.000536842105,34.0456316 C0.000536842105,15.2937368 15.2021158,0.0903684211 33.9540105,0.0903684211 C52.7076947,0.0903684211 67.9092737,15.2937368 67.9092737,34.0456316"></path>
                    </g>
                    <path d="M47.4718737,22.8701895 L26.6728211,43.6710316 C25.8639789,44.4780842 25.8639789,45.8005053 26.6728211,46.6093474 C27.4798737,47.4181895 28.8022947,47.4181895 29.6111368,46.6093474 L50.4119789,25.8102947 C51.2190316,24.9996632 51.2190316,23.6790316 50.4119789,22.8701895 C49.6013474,22.0631368 48.2807158,22.0631368 47.4718737,22.8701895" id="Fill-4" fill="#FFFFFF"></path>
                    <path d="M18.8873579,38.8251368 L26.6733579,46.6093474 C27.4804105,47.4181895 28.8028316,47.4181895 29.6098842,46.6093474 C30.4169368,45.8005053 30.4169368,44.4780842 29.6098842,43.6710316 L21.8256737,35.8850316 C21.0168316,35.0779789 19.6944105,35.0779789 18.8873579,35.8850316 C18.0803053,36.6956632 18.0803053,38.0162947 18.8873579,38.8251368" id="Fill-6" fill="#FFFFFF"></path>
                </g>
            </g>
        </g>
    </g>
</svg>