<?xml version="1.0" standalone="no"?>
<!DOCTYPE svg PUBLIC "-//W3C//DTD SVG 20010904//EN"
 "http://www.w3.org/TR/2001/REC-SVG-20010904/DTD/svg10.dtd">
<svg version="1.0" xmlns="http://www.w3.org/2000/svg"
 width="700.000000pt" height="700.000000pt" viewBox="0 0 700.000000 700.000000"
 preserveAspectRatio="xMidYMid meet">
<metadata>
Created by potrace 1.11, written by Peter Selinger 2001-2013
</metadata>
<g transform="translate(0.000000,700.000000) scale(0.100000,-0.100000)"
fill="#000000" stroke="none">
<path d="M3215 6989 c-748 -64 -1435 -351 -1995 -835 -551 -475 -938 -1101
-1114 -1799 -34 -137 -72 -346 -88 -490 -17 -155 -17 -575 0 -730 92 -827 450
-1561 1043 -2140 571 -556 1261 -881 2074 -977 143 -16 587 -16 730 0 700 82
1303 334 1840 766 123 99 341 310 445 431 467 543 745 1186 832 1920 16 139
16 595 0 730 -84 696 -331 1296 -748 1820 -109 137 -357 390 -487 498 -576
478 -1231 744 -1982 807 -140 11 -407 11 -550 -1z m2139 -1349 c53 -46 96 -88
96 -93 0 -7 -1440 -1613 -1787 -1993 l-83 -92 1035 -931 c569 -513 1035 -936
1035 -941 0 -13 -170 -200 -181 -200 -7 0 -1898 1694 -2045 1832 l-32 30 -857
-954 c-472 -524 -863 -958 -869 -965 -8 -9 -35 10 -111 77 -55 49 -100 94
-100 100 0 6 387 441 860 966 473 526 861 959 862 962 1 4 -432 396 -962 872
-530 476 -964 869 -964 874 -1 9 170 204 180 205 4 1 442 -390 973 -869 l967
-870 936 1040 c515 572 940 1039 944 1038 4 -2 51 -41 103 -88z"/>
</g>
</svg>
