<?xml version="1.0" encoding="UTF-8"?>
<svg width="27px" height="31px" viewBox="0 0 27 31" version="1.1" xmlns="http://www.w3.org/2000/svg" xmlns:xlink="http://www.w3.org/1999/xlink">
    <!-- Generator: Sketch 50 (54983) - http://www.bohemiancoding.com/sketch -->
    <title>_favicon-original</title>
    <desc>Created with Sketch.</desc>
    <defs></defs>
    <g id="Visual-Design" stroke="none" stroke-width="1" fill="none" fill-rule="evenodd">
        <g id="OTCme-Landing-Page-·-Phone-320px-·-V2" transform="translate(-147.000000, -8080.000000)">
            <g id="Group-24" transform="translate(-42.000000, 7591.000000)">
                <g id="Group-Copy" transform="translate(189.000000, 489.000000)">
                    <g id="_favicon-original">
                        <path d="M13.487911,30.9991389 L8.89092311,26.1024232 C7.71480803,24.8496243 7.6913273,22.7738996 8.89084612,21.5462765 C10.051333,20.35859 11.8961485,20.373679 13.0393906,21.5913795 L13.0825797,21.6374666 C13.3074558,21.8770049 13.6721385,21.8770049 13.8969376,21.6374666 C15.0731296,20.3845858 17.0217222,20.3596561 18.1742026,21.6373846 C19.2891908,22.8735364 19.2751024,24.8386355 18.1318603,26.056418 L13.4916833,30.9991389 C13.4906055,31.000287 13.4889888,31.000287 13.487911,30.9991389" id="Fill-1" fill="#38CECE"></path>
                        <path d="M22.7369162,20.6666667 C22.2623609,20.6666667 21.7805574,20.5637698 21.3258309,20.346543 C19.7357043,19.5868574 19.0792751,17.716226 19.8599251,16.1685561 C21.1947783,13.521941 20.6517392,10.342354 18.5085758,8.25644185 C15.746891,5.56863553 11.253113,5.56855444 8.49142825,8.25644185 C6.34826489,10.342354 5.80514244,13.521941 7.14007894,16.1685561 C7.92072894,17.716226 7.26429976,19.5868574 5.67408988,20.346543 C4.08379668,21.1060664 2.161998,20.4676029 1.38134799,18.9197709 C-1.16280454,13.8755528 -0.128464109,7.81615017 3.95516022,3.84160564 C9.21825756,-1.28053521 17.7816632,-1.28053521 23.0447605,3.84160564 C27.1284682,7.81615017 28.1628086,13.8755528 25.6186561,18.9197709 C25.0612037,20.0249598 23.9218879,20.6666667 22.7369162,20.6666667" id="Fill-3" fill="#346AEB"></path>
                    </g>
                </g>
            </g>
        </g>
    </g>
</svg>