<svg width="103" height="27" fill="none" xmlns="http://www.w3.org/2000/svg"><path d="M18.896.836h1.476V26h-1.764L1.832 3.104V26H.32V.836h1.764l16.812 22.932V.836zM40.492 26l-.036-3.708c-.769 1.272-1.8 2.22-3.097 2.844-1.272.6-2.736.9-4.392.9-1.223 0-2.303-.24-3.24-.72-.936-.48-1.668-1.128-2.195-1.944-.505-.84-.756-1.788-.756-2.844 0-1.56.623-2.784 1.872-3.672 1.247-.912 2.951-1.368 5.112-1.368h6.66v-1.836c-.025-1.608-.505-2.856-1.44-3.744-.936-.888-2.328-1.332-4.176-1.332a8.048 8.048 0 0 0-3.205.648c-1.008.408-2.04 1.008-3.096 1.8l-.72-1.152c1.224-.888 2.4-1.548 3.528-1.98 1.129-.456 2.364-.684 3.709-.684 2.183 0 3.863.564 5.04 1.692 1.2 1.128 1.811 2.676 1.835 4.644L41.968 26h-1.475zm-7.308-1.332c1.8 0 3.324-.396 4.572-1.188 1.248-.792 2.148-1.992 2.7-3.6v-3.06h-6.553c-1.847 0-3.263.312-4.247.936-.96.624-1.44 1.536-1.44 2.736 0 1.248.444 2.256 1.331 3.024.912.768 2.125 1.152 3.637 1.152zm39.29-17.46c2.231 0 3.971.648 5.22 1.944 1.271 1.296 1.907 3.096 1.907 5.4V26h-1.476V14.84c0-1.92-.528-3.42-1.584-4.5s-2.532-1.62-4.428-1.62c-2.232.048-3.984.792-5.256 2.232-1.248 1.44-1.872 3.396-1.872 5.868V26H63.51V14.84c0-1.92-.54-3.42-1.62-4.5-1.056-1.08-2.52-1.62-4.392-1.62-2.232.048-3.984.804-5.256 2.268-1.272 1.44-1.908 3.384-1.908 5.832V26h-1.476V7.244h1.476v4.932c.6-1.608 1.536-2.82 2.808-3.636 1.296-.84 2.88-1.284 4.752-1.332 1.872 0 3.408.48 4.608 1.44 1.2.936 1.968 2.268 2.304 3.996.576-1.752 1.512-3.084 2.808-3.996 1.32-.912 2.94-1.392 4.86-1.44zm21.129 0c1.8 0 3.36.42 4.68 1.26 1.343.816 2.351 1.968 3.023 3.456.696 1.488 1.032 3.192 1.008 5.112h-16.38c.073 1.512.445 2.844 1.117 3.996a7.208 7.208 0 0 0 2.736 2.7c1.151.624 2.447.936 3.887.936 1.272 0 2.448-.216 3.528-.648a7.757 7.757 0 0 0 2.808-1.944l.864.972a9.17 9.17 0 0 1-3.203 2.232c-1.249.504-2.605.756-4.069.756-1.752 0-3.324-.396-4.716-1.188a8.779 8.779 0 0 1-3.275-3.348c-.769-1.44-1.153-3.06-1.153-4.86 0-1.8.397-3.42 1.189-4.86.791-1.44 1.871-2.556 3.24-3.348 1.391-.816 2.963-1.224 4.716-1.224zm7.343 8.496c-.144-2.16-.876-3.888-2.195-5.184-1.32-1.296-3.037-1.944-5.148-1.944-2.112 0-3.864.66-5.256 1.98-1.392 1.296-2.184 3.012-2.376 5.148h14.975z" fill="#fff"/></svg>